<?xml version="1.0" encoding="UTF-8"?>
<svg id="_레이어_1" data-name="레이어_1" xmlns="http://www.w3.org/2000/svg" baseProfile="tiny" version="1.2" viewBox="0 0 1240 280">
  <!-- Generator: Adobe Illustrator 29.0.1, SVG Export Plug-In . SVG Version: 2.1.0 Build 192)  -->
  <g>
    <polygon points="152.312 81.239 130.756 81.239 71.996 140 130.629 198.761 152.312 198.761 93.679 140 152.312 81.239" fill="#00962b"/>
    <polygon points="251.81 81.239 230.252 81.239 288.887 140 230.252 198.761 251.936 198.761 310.568 140 251.81 81.239" fill="#00962b"/>
    <path d="M242.439,110.453l-.288-4.917-4.854-.858c-.609-.105-3.889-.63-8.616-.63-8.954,0-21.714,1.85-31.651,10.663-6.781,6.013-11.117,14.372-12.892,24.853-1.725-2.97-3.719-5.512-6.085-7.756-7.199-6.826-17.095-10.288-29.412-10.288-3.009,0-6.203.209-9.495.621l-5.082.634-.365,5.108c-.058.792-1.242,19.559,11.856,31.981,7.2,6.827,17.096,10.289,29.413,10.289,1.59,0,3.312-.075,5.403-.236v14.253h12.473v-22.375c.134.002.305.005.413.005,8.607,0,24.796-1.678,36.512-12.915,9.378-8.994,13.641-21.924,12.67-38.434ZM174.951,157.682c-8.966,0-15.948-2.291-20.752-6.808-5.283-4.971-7.154-11.857-7.786-16.838.771-.032,1.528-.047,2.271-.047,8.948,0,15.922,2.291,20.727,6.81,5.281,4.972,7.153,11.857,7.786,16.837-.762.031-1.511.046-2.246.046ZM221.184,139.84c-7.788,7.506-19.243,9.13-25.523,9.419.297-11.291,3.524-19.76,9.594-25.172,7.006-6.245,16.608-7.555,23.431-7.555.485,0,.951.006,1.395.018-.288,10.043-3.28,17.878-8.896,23.29Z" fill="#00962b"/>
  </g>
  <g>
    <path d="M373.153,125.508c2.285-2.247,5.002-3.97,8.148-5.169,3.147-1.198,6.631-1.799,10.452-1.799,3.97,0,7.642.731,11.014,2.192,3.372,1.461,6.48,3.692,9.328,6.688l11.688-10.789c-3.821-4.42-8.524-7.791-14.104-10.115-5.583-2.321-11.857-3.483-18.825-3.483-6.293,0-12.064.993-17.307,2.978-5.245,1.987-9.816,4.815-13.711,8.485-3.896,3.673-6.911,7.981-9.047,12.925-2.136,4.945-3.203,10.378-3.203,16.296s1.067,11.351,3.203,16.296c2.135,4.945,5.131,9.254,8.991,12.924,3.858,3.672,8.39,6.501,13.598,8.485,5.207,1.984,10.919,2.979,17.139,2.979,5.62,0,11.256-.862,16.914-2.585,5.656-1.723,10.62-4.195,14.891-7.418v-31.917h-7.318v-.08h-18v14h8.685v9.173c-1.206.629-2.423,1.156-3.653,1.575-3.41,1.163-6.911,1.742-10.508,1.742-3.747,0-7.175-.598-10.283-1.797-3.11-1.198-5.807-2.94-8.092-5.226-2.286-2.285-4.045-4.963-5.282-8.035-1.236-3.072-1.854-6.444-1.854-10.115,0-3.745.619-7.155,1.854-10.227,1.237-3.072,2.996-5.732,5.282-7.981Z"/>
    <path d="M491.44,157.763c5.094-2.247,9.028-5.488,11.8-9.722,2.771-4.232,4.158-9.271,4.158-15.116,0-8.916-3.035-15.903-9.103-20.959-6.069-5.058-14.574-7.586-25.512-7.586h-33.604v78.67h18.207v-21.915h15.846c.288,0,.563-.013.848-.017l15.111,21.932h19.668l-17.577-25.223c.051-.022.106-.041.157-.063ZM484.809,122.812c2.771,2.398,4.158,5.77,4.158,10.114,0,4.27-1.388,7.625-4.158,10.059-2.773,2.435-6.968,3.652-12.588,3.652h-14.835v-27.423h14.835c5.619,0,9.814,1.199,12.588,3.597Z"/>
    <path d="M590.619,114.607c-3.86-3.67-8.392-6.518-13.599-8.541-5.209-2.023-10.921-3.035-17.139-3.035-6.144,0-11.839,1.012-17.083,3.035-5.245,2.023-9.816,4.871-13.711,8.541-3.896,3.673-6.911,7.979-9.047,12.924-2.136,4.946-3.203,10.34-3.203,16.184s1.067,11.238,3.203,16.183c2.135,4.946,5.131,9.255,8.991,12.925,3.858,3.671,8.429,6.518,13.711,8.541,5.283,2.023,11.031,3.035,17.252,3.035,6.142,0,11.818-1.012,17.027-3.035,5.207-2.023,9.739-4.85,13.599-8.485,3.857-3.634,6.872-7.941,9.047-12.924,2.172-4.982,3.26-10.397,3.26-16.24,0-5.917-1.088-11.332-3.26-16.24-2.175-4.906-5.189-9.196-9.047-12.868ZM582.639,153.942c-1.236,3.073-2.978,5.732-5.226,7.979-2.248,2.249-4.852,3.972-7.811,5.17-2.961,1.199-6.2,1.797-9.721,1.797s-6.782-.598-9.778-1.797c-2.998-1.198-5.602-2.922-7.811-5.17-2.211-2.247-3.933-4.925-5.17-8.035-1.236-3.109-1.854-6.5-1.854-10.171,0-3.745.619-7.155,1.854-10.227,1.237-3.072,2.978-5.732,5.226-7.981,2.247-2.247,4.85-3.97,7.811-5.169,2.959-1.198,6.199-1.799,9.722-1.799s6.78.6,9.777,1.799c2.996,1.2,5.6,2.922,7.811,5.169,2.209,2.249,3.934,4.908,5.17,7.981,1.236,3.072,1.854,6.482,1.854,10.227s-.618,7.156-1.854,10.227Z"/>
    <polygon points="697.207 160.09 679.236 104.38 662.378 104.38 643.826 159.678 626.077 104.38 607.196 104.38 632.932 183.05 652.488 183.05 670.321 129.746 687.664 183.05 707.22 183.05 732.957 104.38 715.537 104.38 697.207 160.09"/>
    <polygon points="734.42 119.214 759.594 119.214 759.594 183.05 777.801 183.05 777.801 119.214 802.975 119.214 802.975 104.38 734.42 104.38 734.42 119.214"/>
    <polygon points="866.697 135.399 830.958 135.399 830.958 104.38 812.751 104.38 812.751 183.05 830.958 183.05 830.958 150.796 866.697 150.796 866.697 183.05 884.904 183.05 884.904 104.38 866.697 104.38 866.697 135.399"/>
    <polygon points="953.571 104.38 935.365 104.38 935.365 183.05 993.019 183.05 993.019 168.215 953.571 168.215 953.571 104.38"/>
    <path d="M1070.733,114.607c-3.859-3.67-8.392-6.518-13.599-8.541-5.208-2.023-10.92-3.035-17.139-3.035-6.144,0-11.84,1.012-17.083,3.035-5.246,2.023-9.816,4.871-13.711,8.541-3.897,3.673-6.912,7.979-9.047,12.924-2.136,4.946-3.203,10.34-3.203,16.184s1.067,11.238,3.203,16.183c2.135,4.946,5.13,9.255,8.991,12.925,3.858,3.671,8.429,6.518,13.711,8.541,5.282,2.023,11.031,3.035,17.252,3.035,6.142,0,11.818-1.012,17.026-3.035,5.207-2.023,9.739-4.85,13.599-8.485,3.858-3.634,6.873-7.941,9.048-12.924,2.172-4.982,3.259-10.397,3.259-16.24,0-5.917-1.087-11.332-3.259-16.24-2.175-4.906-5.19-9.196-9.048-12.868ZM1062.754,153.942c-1.236,3.073-2.978,5.732-5.226,7.979-2.247,2.249-4.851,3.972-7.811,5.17-2.961,1.199-6.2,1.797-9.721,1.797s-6.782-.598-9.778-1.797c-2.997-1.198-5.602-2.922-7.811-5.17-2.211-2.247-3.933-4.925-5.169-8.035-1.237-3.109-1.854-6.5-1.854-10.171,0-3.745.617-7.155,1.854-10.227,1.236-3.072,2.978-5.732,5.225-7.981,2.249-2.247,4.85-3.97,7.812-5.169,2.958-1.198,6.198-1.799,9.721-1.799s6.78.6,9.778,1.799c2.996,1.2,5.6,2.922,7.811,5.169,2.209,2.249,3.933,4.908,5.169,7.981,1.236,3.072,1.854,6.482,1.854,10.227s-.619,7.156-1.854,10.227Z"/>
    <path d="M1160.004,142.399h-18v14h7.906v9.174c-1.206.629-2.423,1.156-3.653,1.575-3.411,1.163-6.912,1.742-10.508,1.742-3.748,0-7.175-.598-10.283-1.797-3.111-1.198-5.808-2.94-8.092-5.226-2.286-2.285-4.046-4.963-5.282-8.035-1.237-3.072-1.854-6.444-1.854-10.115,0-3.745.617-7.155,1.854-10.227,1.236-3.072,2.996-5.732,5.282-7.981,2.284-2.247,5-3.97,8.148-5.169,3.146-1.198,6.631-1.799,10.452-1.799,3.97,0,7.642.731,11.014,2.192,3.371,1.461,6.479,3.692,9.328,6.688l11.688-10.789c-3.822-4.42-8.524-7.791-14.105-10.115-5.582-2.321-11.857-3.483-18.825-3.483-6.293,0-12.064.993-17.307,2.978-5.245,1.987-9.816,4.815-13.711,8.485-3.897,3.673-6.912,7.981-9.047,12.925-2.136,4.945-3.203,10.378-3.203,16.296s1.067,11.351,3.203,16.296c2.135,4.945,5.13,9.254,8.991,12.924,3.858,3.672,8.391,6.501,13.599,8.485,5.207,1.984,10.919,2.979,17.139,2.979,5.619,0,11.257-.862,16.915-2.585,5.657-1.723,10.621-4.195,14.891-7.418v-31.917h-6.539v-.08Z"/>
  </g>
</svg>