<?xml version="1.0" encoding="UTF-8"?>
<svg id="_레이어_1" data-name="레이어_1" xmlns="http://www.w3.org/2000/svg" baseProfile="tiny" version="1.2" viewBox="0 0 550 330">
  <!-- Generator: Adobe Illustrator 29.0.1, SVG Export Plug-In . SVG Version: 2.1.0 Build 192)  -->
  <g>
    <path d="M61.952,52.676c-3.938,3.775-5.908,9.231-5.908,16.37v22.277c0,1.888-.492,3.323-1.477,4.308s-2.298,1.477-3.938,1.477h-4.062v15.016h4.062c1.641,0,2.954.473,3.938,1.416.984.944,1.477,2.4,1.477,4.369v22.277c0,7.056,1.97,12.493,5.908,16.308s9.723,5.723,17.354,5.723h7.138v-15.016h-2.215c-2.954,0-5.19-.781-6.708-2.338-1.52-1.56-2.277-3.816-2.277-6.77v-19.693c0-3.609-.492-6.44-1.477-8.492-.984-2.05-2.523-3.548-4.615-4.493-.709-.319-1.512-.59-2.357-.839.846-.249,1.648-.516,2.357-.823,2.092-.902,3.631-2.379,4.615-4.431.984-2.05,1.477-4.881,1.477-8.493v-19.692c0-2.954.758-5.21,2.277-6.77,1.518-1.558,3.754-2.338,6.708-2.338h2.215v-15.016h-7.138c-7.632,0-13.416,1.888-17.354,5.662Z" fill="#251714"/>
    <path d="M121.029,81.322c2.461-2.461,5.373-4.348,8.738-5.662,3.363-1.312,7.056-1.969,11.077-1.969,4.266,0,8.204.842,11.815,2.523,3.61,1.683,6.893,4.206,9.847,7.569l12.8-11.815c-4.104-5.004-9.169-8.8-15.2-11.385-6.03-2.585-12.78-3.877-20.246-3.877-6.729,0-12.924,1.088-18.585,3.262-5.662,2.175-10.606,5.273-14.831,9.292-4.228,4.021-7.508,8.738-9.847,14.154-2.338,5.416-3.508,11.366-3.508,17.847s1.17,12.431,3.508,17.846c2.339,5.416,5.601,10.135,9.785,14.154,4.185,4.021,9.127,7.119,14.831,9.292,5.702,2.173,11.877,3.262,18.523,3.262,7.548,0,14.339-1.313,20.369-3.938,6.031-2.625,11.097-6.44,15.2-11.446l-12.8-11.816c-2.954,3.446-6.236,6.012-9.847,7.692-3.611,1.683-7.55,2.523-11.815,2.523-4.021,0-7.714-.656-11.077-1.969-3.365-1.312-6.277-3.2-8.738-5.662-2.462-2.462-4.369-5.374-5.724-8.739-1.354-3.364-2.03-7.096-2.03-11.2s.677-7.835,2.03-11.2c1.354-3.364,3.262-6.277,5.724-8.739Z" fill="#251714"/>
    <path d="M259.187,69.384c-4.227-4.02-9.19-7.139-14.893-9.354-5.704-2.216-11.96-3.323-18.77-3.323-6.729,0-12.966,1.107-18.708,3.323-5.744,2.215-10.75,5.334-15.016,9.354-4.268,4.021-7.569,8.738-9.908,14.154-2.338,5.416-3.508,11.323-3.508,17.724s1.17,12.308,3.508,17.723c2.339,5.416,5.619,10.135,9.847,14.154,4.225,4.021,9.23,7.139,15.016,9.354,5.784,2.215,12.081,3.323,18.893,3.323,6.728,0,12.942-1.108,18.646-3.323,5.702-2.215,10.666-5.312,14.893-9.292,4.226-3.979,7.527-8.696,9.908-14.154,2.379-5.456,3.569-11.385,3.569-17.785,0-6.481-1.19-12.41-3.569-17.785-2.381-5.373-5.683-10.071-9.908-14.092ZM250.448,112.461c-1.354,3.365-3.262,6.277-5.724,8.739-2.462,2.461-5.313,4.35-8.554,5.662-3.242,1.313-6.791,1.969-10.646,1.969s-7.427-.656-10.708-1.969c-3.282-1.312-6.135-3.2-8.554-5.662-2.422-2.462-4.308-5.395-5.662-8.8-1.354-3.404-2.03-7.118-2.03-11.139,0-4.102.677-7.835,2.03-11.2,1.354-3.364,3.262-6.277,5.724-8.739,2.461-2.461,5.312-4.348,8.554-5.662,3.24-1.312,6.789-1.969,10.646-1.969s7.425.658,10.708,1.969c3.28,1.313,6.133,3.2,8.554,5.662,2.42,2.461,4.308,5.375,5.662,8.739,1.354,3.365,2.03,7.098,2.03,11.2s-.677,7.836-2.03,11.2Z" fill="#251714"/>
    <path d="M351.557,63.537c-7.139-3.569-15.385-5.354-24.739-5.354h-39.139v86.155h39.139c9.354,0,17.601-1.785,24.739-5.354s12.718-8.573,16.738-15.016c4.02-6.44,6.031-14.01,6.031-22.708,0-8.779-2.012-16.37-6.031-22.77-4.021-6.4-9.6-11.385-16.738-14.955ZM350.634,115.415c-2.339,4.021-5.621,7.12-9.847,9.292-4.227,2.175-9.212,3.262-14.954,3.262h-18.216v-53.417h18.216c5.742,0,10.728,1.089,14.954,3.262,4.226,2.175,7.508,5.252,9.847,9.231,2.338,3.981,3.508,8.719,3.508,14.216,0,5.416-1.17,10.135-3.508,14.154Z" fill="#251714"/>
    <polygon points="409.156 108.4 449.157 108.4 449.157 92.891 409.156 92.891 409.156 74.183 454.449 74.183 454.449 58.183 389.341 58.183 389.341 144.339 456.05 144.339 456.05 128.338 409.156 128.338 409.156 108.4" fill="#251714"/>
    <path d="M499.372,96.107c-1.643,0-2.954-.492-3.938-1.477s-1.477-2.419-1.477-4.308v-22.277c0-7.139-1.95-12.595-5.847-16.37-3.898-3.773-9.704-5.662-17.416-5.662h-7.139v15.016h2.216c2.954,0,5.188.781,6.708,2.338,1.518,1.56,2.277,3.815,2.277,6.77v19.692c0,3.612.511,6.442,1.538,8.493,1.025,2.052,2.563,3.529,4.615,4.431.686.302,1.447.575,2.271.822-.824.247-1.586.525-2.271.84-2.052.944-3.59,2.442-4.615,4.493-1.027,2.052-1.538,4.883-1.538,8.492v19.693c0,2.954-.76,5.209-2.277,6.77-1.52,1.558-3.754,2.338-6.708,2.338h-2.216v15.016h7.139c7.712,0,13.518-1.908,17.416-5.723,3.896-3.815,5.847-9.252,5.847-16.308v-22.277c0-1.969.492-3.425,1.477-4.369.984-.942,2.296-1.416,3.938-1.416h4.062v-15.016h-4.062Z" fill="#251714"/>
    <path d="M259.52,26.606v-6.517h-6.517c-13.901,0-25.169,11.269-25.169,25.17v6.517h6.517c13.901,0,25.17-11.269,25.17-25.17Z" fill="#00962b"/>
    <path d="M219.164,51.776h5.013v-5.013c0-10.693-8.668-19.361-19.361-19.361h-5.013v5.013c0,10.693,8.668,19.361,19.361,19.361Z" fill="#00962b"/>
  </g>
  <g>
    <path d="M41.483,200.371c-3.938,3.775-5.908,9.23-5.908,16.369v22.277c0,1.889-.492,3.323-1.477,4.308-.984.985-2.298,1.478-3.938,1.478h-4.062v15.016h4.062c1.641,0,2.954.473,3.938,1.415.984.944,1.477,2.4,1.477,4.369v22.277c0,7.057,1.97,12.493,5.908,16.309s9.723,5.723,17.354,5.723h7.138v-15.016h-2.215c-2.954,0-5.19-.78-6.708-2.338-1.52-1.56-2.277-3.815-2.277-6.77v-19.692c0-3.61-.492-6.44-1.477-8.493-.984-2.05-2.523-3.548-4.615-4.492-.708-.319-1.511-.59-2.356-.839.846-.249,1.648-.516,2.356-.822,2.092-.902,3.631-2.379,4.615-4.432.984-2.05,1.477-4.881,1.477-8.492v-19.692c0-2.954.758-5.21,2.277-6.77,1.518-1.558,3.754-2.339,6.708-2.339h2.215v-15.016h-7.138c-7.632,0-13.416,1.889-17.354,5.662Z" fill="#251714"/>
    <path d="M100.622,229.017c2.502-2.462,5.477-4.348,8.923-5.661,3.446-1.312,7.262-1.97,11.446-1.97,4.349,0,8.37.8,12.062,2.4,3.692,1.6,7.096,4.042,10.215,7.323l12.801-11.816c-4.185-4.84-9.335-8.532-15.446-11.077-6.114-2.542-12.985-3.815-20.616-3.815-6.893,0-13.212,1.089-18.954,3.262-5.744,2.176-10.75,5.273-15.016,9.293-4.268,4.021-7.569,8.738-9.908,14.154-2.338,5.415-3.508,11.365-3.508,17.846s1.17,12.432,3.508,17.847c2.339,5.416,5.619,10.135,9.847,14.154,4.225,4.021,9.188,7.119,14.893,9.293,5.702,2.173,11.958,3.261,18.77,3.261,6.154,0,12.327-.944,18.523-2.83,6.194-1.887,11.631-4.595,16.308-8.124v-34.954h-26.184v16.315l7.968.024v8.952c-1.32.688-2.653,1.266-4,1.724-3.734,1.273-7.569,1.908-11.508,1.908-4.104,0-7.857-.656-11.262-1.97-3.405-1.312-6.359-3.219-8.861-5.723-2.504-2.502-4.431-5.435-5.785-8.801-1.354-3.363-2.03-7.056-2.03-11.077,0-4.102.677-7.834,2.03-11.2,1.354-3.363,3.281-6.276,5.785-8.738Z" fill="#251714"/>
    <path d="M230.162,264.342c5.579-2.462,9.887-6.01,12.924-10.646,3.034-4.635,4.554-10.154,4.554-16.555,0-9.764-3.323-17.415-9.97-22.954-6.646-5.538-15.96-8.308-27.938-8.308h-36.801v86.155h19.938v-24h17.354c.315,0,.617-.015.929-.019l16.549,24.019h21.538l-19.249-27.623c.056-.024.116-.045.172-.07ZM192.869,222.125h16.246c6.154,0,10.749,1.313,13.785,3.938,3.035,2.627,4.554,6.319,4.554,11.077,0,4.677-1.519,8.351-4.554,11.016-3.036,2.668-7.631,4-13.785,4h-16.246v-30.031Z" fill="#251714"/>
    <path d="M338.777,217.079c-4.227-4.02-9.19-7.139-14.893-9.354-5.704-2.215-11.96-3.323-18.77-3.323-6.729,0-12.966,1.108-18.708,3.323-5.744,2.216-10.75,5.335-15.016,9.354-4.268,4.021-7.569,8.738-9.908,14.154-2.338,5.415-3.508,11.323-3.508,17.723s1.17,12.309,3.508,17.724c2.339,5.416,5.619,10.135,9.847,14.154,4.225,4.021,9.23,7.139,15.016,9.354,5.784,2.215,12.081,3.322,18.893,3.322,6.728,0,12.942-1.107,18.646-3.322,5.702-2.216,10.666-5.312,14.893-9.293,4.226-3.979,7.527-8.696,9.908-14.154,2.379-5.456,3.569-11.385,3.569-17.785,0-6.48-1.19-12.409-3.569-17.784-2.381-5.374-5.683-10.071-9.908-14.093ZM330.039,260.156c-1.354,3.366-3.262,6.277-5.724,8.739-2.462,2.461-5.313,4.35-8.554,5.661-3.242,1.313-6.791,1.97-10.646,1.97s-7.427-.656-10.708-1.97c-3.282-1.312-6.135-3.2-8.554-5.661-2.422-2.462-4.308-5.395-5.662-8.801-1.354-3.403-2.03-7.117-2.03-11.139,0-4.102.677-7.834,2.03-11.2,1.354-3.363,3.262-6.276,5.724-8.738,2.461-2.462,5.312-4.348,8.554-5.661,3.24-1.312,6.789-1.97,10.646-1.97s7.425.657,10.708,1.97c3.28,1.313,6.133,3.199,8.554,5.661,2.42,2.462,4.308,5.375,5.662,8.738,1.354,3.366,2.03,7.099,2.03,11.2s-.677,7.837-2.03,11.2Z" fill="#251714"/>
    <polygon points="439.016 266.887 421.894 205.879 405.832 205.879 388.156 266.439 371.245 205.879 353.256 205.879 377.777 292.034 396.409 292.034 413.4 233.658 429.925 292.034 448.557 292.034 473.077 205.879 456.48 205.879 439.016 266.887" fill="#251714"/>
    <path d="M519.84,243.803c-1.643,0-2.954-.492-3.938-1.478-.984-.984-1.477-2.419-1.477-4.308v-22.277c0-7.139-1.95-12.594-5.847-16.369-3.898-3.773-9.704-5.662-17.416-5.662h-7.139v15.016h2.216c2.954,0,5.188.781,6.708,2.339,1.518,1.56,2.277,3.815,2.277,6.77v19.692c0,3.611.511,6.442,1.538,8.492,1.025,2.053,2.563,3.529,4.615,4.432.686.302,1.447.574,2.271.821-.824.247-1.585.525-2.271.84-2.052.944-3.59,2.442-4.615,4.492-1.027,2.053-1.538,4.883-1.538,8.493v19.692c0,2.954-.76,5.21-2.277,6.77-1.52,1.558-3.754,2.338-6.708,2.338h-2.216v15.016h7.139c7.712,0,13.518-1.907,17.416-5.723,3.896-3.815,5.847-9.252,5.847-16.309v-22.277c0-1.969.492-3.425,1.477-4.369.984-.942,2.296-1.415,3.938-1.415h4.062v-15.016h-4.062Z" fill="#251714"/>
    <path d="M339.051,174.606v-6.517h-6.517c-13.901,0-25.17,11.269-25.17,25.17v6.517h6.517c13.901,0,25.169-11.269,25.169-25.17Z" fill="#00962b"/>
    <path d="M298.695,199.776h5.013v-5.013c0-10.693-8.668-19.361-19.361-19.361h-5.013v5.013c0,10.693,8.668,19.361,19.361,19.361Z" fill="#00962b"/>
  </g>
</svg>