<?xml version="1.0" encoding="UTF-8"?>
<svg id="_레이어_1" data-name="레이어_1" xmlns="http://www.w3.org/2000/svg" baseProfile="tiny" version="1.2" viewBox="0 0 300 300">
  <!-- Generator: Adobe Illustrator 29.0.1, SVG Export Plug-In . SVG Version: 2.1.0 Build 192)  -->
  <polygon points="111.03 91.239 89.474 91.239 30.714 150 89.347 208.761 111.03 208.761 52.396 150 111.03 91.239" fill="#00962b"/>
  <polygon points="210.527 91.239 188.97 91.239 247.604 150 188.97 208.761 210.653 208.761 269.286 150 210.527 91.239" fill="#00962b"/>
  <path d="M201.157,120.453l-.288-4.917-4.854-.858c-.609-.105-3.889-.63-8.616-.63-8.954,0-21.714,1.85-31.651,10.663-6.781,6.013-11.117,14.372-12.892,24.853-1.725-2.97-3.719-5.512-6.085-7.756-7.199-6.826-17.095-10.288-29.412-10.288-3.009,0-6.203.209-9.495.621l-5.082.634-.365,5.108c-.058.792-1.242,19.559,11.856,31.981,7.2,6.827,17.096,10.289,29.413,10.289,1.59,0,3.312-.075,5.403-.236v14.253h12.473v-22.375c.134.002.305.005.413.005,8.607,0,24.796-1.678,36.512-12.915,9.378-8.994,13.641-21.924,12.67-38.434ZM133.669,167.682c-8.966,0-15.948-2.291-20.752-6.808-5.283-4.971-7.154-11.857-7.786-16.838.771-.032,1.528-.047,2.271-.047,8.948,0,15.922,2.291,20.727,6.81,5.281,4.972,7.153,11.857,7.786,16.837-.762.031-1.511.046-2.246.046ZM179.901,149.84c-7.788,7.506-19.243,9.13-25.523,9.419.297-11.291,3.524-19.76,9.594-25.172,7.006-6.245,16.608-7.555,23.431-7.555.485,0,.951.006,1.395.018-.288,10.043-3.28,17.878-8.896,23.29Z" fill="#00962b"/>
</svg>