<svg width="643" height="55" viewBox="0 0 643 55" fill="none" xmlns="http://www.w3.org/2000/svg">
<rect width="68" height="20" rx="10" fill="#222222"/>
<path d="M18.1504 13.8359H8.38867V12.5938H18.1504V13.8359ZM9.15039 5.35156H17.3301V6.54688H15.8301V9.78125H17.2832V10.9531H9.19727V9.78125H10.627V6.54688H9.15039V5.35156ZM14.3535 9.78125V6.54688H12.127V9.78125H14.3535ZM28.5098 11.5039H18.748V10.3086H22.8848V9.48828H19.9668V6.54688H25.8262V5.79688H19.9434V4.64844H27.3262V7.60156H21.4551V8.35156H27.5254V9.48828H24.373V10.3086H28.5098V11.5039ZM19.9785 12.043H21.4785V13.9414H27.5605V15.1367H19.9785V12.043ZM37.8262 11.1055H30.2793V5.19922H37.7441V6.40625H31.8027V7.53125H37.498V8.70312H31.8027V9.92188H37.8262V11.1055ZM29.1309 12.6172H38.8926V13.8359H29.1309V12.6172ZM41.998 5.19922C42.4082 5.19922 42.7832 5.28711 43.123 5.46289C43.4629 5.63477 43.7461 5.88086 43.9727 6.20117C44.1992 6.51758 44.3496 6.88672 44.4238 7.30859H45.127V4.57812H46.5098V12.0312H45.127V8.52734H44.4062C44.3242 8.93359 44.1699 9.29102 43.9434 9.59961C43.7168 9.9043 43.4355 10.1426 43.0996 10.3145C42.7637 10.4824 42.3965 10.5664 41.998 10.5664C41.5293 10.5664 41.1074 10.4531 40.7324 10.2266C40.3613 9.99609 40.0703 9.67773 39.8594 9.27148C39.6523 8.86133 39.5488 8.39844 39.5488 7.88281C39.5488 7.35938 39.6523 6.89453 39.8594 6.48828C40.0703 6.07812 40.3613 5.76172 40.7324 5.53906C41.1035 5.3125 41.5254 5.19922 41.998 5.19922ZM40.8848 7.86523C40.8848 8.30664 40.9863 8.65234 41.1895 8.90234C41.3926 9.15234 41.6621 9.27734 41.998 9.27734C42.2168 9.27734 42.4102 9.22266 42.5781 9.11328C42.75 9 42.8848 8.83984 42.9824 8.63281C43.0801 8.42188 43.1309 8.17188 43.1348 7.88281C43.1309 7.59375 43.0801 7.3418 42.9824 7.12695C42.8848 6.91211 42.75 6.74805 42.5781 6.63477C42.4102 6.52148 42.2168 6.46484 41.998 6.46484C41.7793 6.46484 41.5859 6.52148 41.418 6.63477C41.25 6.74805 41.1191 6.91016 41.0254 7.12109C40.9316 7.33203 40.8848 7.58008 40.8848 7.86523ZM41.4355 11.3281H42.9355V13.6953H48.9355V14.8906H41.4355V11.3281ZM47.248 4.41406H48.666V12.3594H47.248V4.41406ZM58.5684 10.543H51.0215V5.30469H58.4863V6.51172H52.498V9.34766H58.5684V10.543ZM49.873 12.5469H59.6348V13.7773H49.873V12.5469Z" fill="white"/>
<rect x="73" width="48" height="20" rx="10" fill="#222222"/>
<path d="M83.5527 6.60547H85.0059V5.08203H86.3887V10.25H82.1348V5.08203H83.5527V6.60547ZM83.5527 11.3281H90.9238V15.0781H89.4355V12.5234H83.5527V11.3281ZM85.0059 9.06641V7.74219H83.5527V9.06641H85.0059ZM87.2207 4.61328H88.6152V7.02734H89.5059V4.42578H90.9238V10.8477H89.5059V8.23438H88.6152V10.7891H87.2207V4.61328ZM94.627 5.19922C95.0371 5.19922 95.4121 5.28711 95.752 5.46289C96.0918 5.63477 96.375 5.88086 96.6016 6.20117C96.8281 6.51758 96.9785 6.88672 97.0527 7.30859H97.7559V4.57812H99.1387V12.0312H97.7559V8.52734H97.0352C96.9531 8.93359 96.7988 9.29102 96.5723 9.59961C96.3457 9.9043 96.0645 10.1426 95.7285 10.3145C95.3926 10.4824 95.0254 10.5664 94.627 10.5664C94.1582 10.5664 93.7363 10.4531 93.3613 10.2266C92.9902 9.99609 92.6992 9.67773 92.4883 9.27148C92.2812 8.86133 92.1777 8.39844 92.1777 7.88281C92.1777 7.35938 92.2812 6.89453 92.4883 6.48828C92.6992 6.07812 92.9902 5.76172 93.3613 5.53906C93.7324 5.3125 94.1543 5.19922 94.627 5.19922ZM93.5137 7.86523C93.5137 8.30664 93.6152 8.65234 93.8184 8.90234C94.0215 9.15234 94.291 9.27734 94.627 9.27734C94.8457 9.27734 95.0391 9.22266 95.207 9.11328C95.3789 9 95.5137 8.83984 95.6113 8.63281C95.709 8.42188 95.7598 8.17188 95.7637 7.88281C95.7598 7.59375 95.709 7.3418 95.6113 7.12695C95.5137 6.91211 95.3789 6.74805 95.207 6.63477C95.0391 6.52148 94.8457 6.46484 94.627 6.46484C94.4082 6.46484 94.2148 6.52148 94.0469 6.63477C93.8789 6.74805 93.748 6.91016 93.6543 7.12109C93.5605 7.33203 93.5137 7.58008 93.5137 7.86523ZM94.0645 11.3281H95.5645V13.6953H101.564V14.8906H94.0645V11.3281ZM99.877 4.41406H101.295V12.3594H99.877V4.41406ZM111.197 10.543H103.65V5.30469H111.115V6.51172H105.127V9.34766H111.197V10.543ZM102.502 12.5469H112.264V13.7773H102.502V12.5469Z" fill="white"/>
<rect x="126" width="116" height="20" rx="10" fill="#222222"/>
<path d="M136.773 14H135.016V5.51562H136.773V14ZM137.875 5.51562H144.824V6.96875H142.223V14H140.477V6.96875H137.875V5.51562ZM158.043 13.8359H148.281V12.5938H158.043V13.8359ZM149.043 5.35156H157.223V6.54688H155.723V9.78125H157.176V10.9531H149.09V9.78125H150.52V6.54688H149.043V5.35156ZM154.246 9.78125V6.54688H152.02V9.78125H154.246ZM168.414 13.8945H158.652V12.6641H162.766V11.0586H159.777V7.47266H165.812V6.30078H159.766V5.10547H167.289V8.64453H161.277V9.83984H167.535V11.0586H164.254V12.6641H168.414V13.8945ZM176.066 10.8594H174.648V8.25781H173.465V7.05078H174.648V4.625H176.066V10.8594ZM168.871 9.65234C169.34 9.47656 169.727 9.23438 170.031 8.92578C170.34 8.61719 170.566 8.27148 170.711 7.88867C170.859 7.50586 170.934 7.10938 170.934 6.69922V6.38281H169.234V5.1875H173.98V6.38281H172.387V6.71094C172.383 7.30859 172.541 7.85547 172.861 8.35156C173.182 8.84766 173.668 9.22266 174.32 9.47656L173.57 10.625C173.129 10.4531 172.75 10.2188 172.434 9.92188C172.121 9.62109 171.869 9.27148 171.678 8.87305C171.475 9.32227 171.205 9.71484 170.869 10.0508C170.537 10.3828 170.133 10.6445 169.656 10.8359L168.871 9.65234ZM170.816 11.3047H178.188V15.0781H176.699V12.4883H170.816V11.3047ZM176.77 4.41406H178.188V10.918H176.77V4.41406ZM188.09 11.1055H180.543V5.19922H188.008V6.40625H182.066V7.53125H187.762V8.70312H182.066V9.92188H188.09V11.1055ZM179.395 12.6172H189.156V13.8359H179.395V12.6172ZM196.457 6.82812C196.453 7.48047 196.545 8.11328 196.732 8.72656C196.92 9.33594 197.203 9.88281 197.582 10.3672C197.961 10.8516 198.426 11.2266 198.977 11.4922L198.074 12.6875C197.52 12.4102 197.045 12.0234 196.65 11.5273C196.256 11.0273 195.945 10.4453 195.719 9.78125C195.477 10.4961 195.146 11.1211 194.729 11.6562C194.311 12.1875 193.809 12.5977 193.223 12.8867L192.297 11.6797C192.879 11.4141 193.369 11.0293 193.768 10.5254C194.166 10.0176 194.463 9.44531 194.658 8.80859C194.857 8.16797 194.957 7.50781 194.957 6.82812V5.23438H196.457V6.82812ZM199.445 4.41406H200.945V8.52734H202.516V9.79297H200.945V15.0781H199.445V4.41406ZM205.879 4.87109C206.324 4.86719 206.736 4.94531 207.115 5.10547C207.498 5.26562 207.818 5.49023 208.076 5.7793C208.338 6.06836 208.518 6.40234 208.615 6.78125H210.402V4.41406H211.891V10.1445H210.402V7.97656H208.621C208.531 8.36328 208.355 8.70703 208.094 9.00781C207.836 9.30469 207.516 9.53516 207.133 9.69922C206.75 9.86328 206.332 9.94531 205.879 9.94531C205.34 9.94531 204.854 9.83594 204.42 9.61719C203.986 9.39844 203.646 9.0957 203.4 8.70898C203.158 8.31836 203.039 7.87891 203.043 7.39062C203.039 6.91016 203.158 6.47852 203.4 6.0957C203.646 5.70898 203.986 5.4082 204.42 5.19336C204.854 4.97461 205.34 4.86719 205.879 4.87109ZM204.461 7.39062C204.461 7.65234 204.52 7.88281 204.637 8.08203C204.758 8.27734 204.926 8.42773 205.141 8.5332C205.355 8.63867 205.602 8.69141 205.879 8.69141C206.148 8.69141 206.389 8.63867 206.6 8.5332C206.811 8.42383 206.975 8.27148 207.092 8.07617C207.213 7.88086 207.273 7.65234 207.273 7.39062C207.273 7.12891 207.213 6.90234 207.092 6.71094C206.975 6.51562 206.811 6.36719 206.6 6.26562C206.389 6.16406 206.148 6.11328 205.879 6.11328C205.602 6.11328 205.355 6.16406 205.141 6.26562C204.926 6.36719 204.758 6.51562 204.637 6.71094C204.52 6.90234 204.461 7.12891 204.461 7.39062ZM204.777 10.6133H206.254V11.6445H210.402V10.6133H211.891V14.9609H204.777V10.6133ZM210.402 13.7539V12.793H206.254V13.7539H210.402ZM219.25 5.85547C219.25 6.40234 219.236 6.91602 219.209 7.39648C219.182 7.87305 219.113 8.40234 219.004 8.98438L217.539 8.84375C217.691 8.03906 217.775 7.22656 217.791 6.40625H213.766V5.1875H219.25V5.85547ZM213.133 9.75781C213.98 9.75781 214.641 9.75195 215.113 9.74023V7.64844H216.602V9.69336C217.812 9.63867 218.863 9.54688 219.754 9.41797L219.836 10.4961C218.848 10.6797 217.814 10.8008 216.736 10.8594C215.658 10.918 214.5 10.9492 213.262 10.9531L213.133 9.75781ZM214.703 11.6797H216.203V13.6953H222.191V14.8906H214.703V11.6797ZM220.328 4.41406H221.863V7.66016H223.152V8.91406H221.863V12.3945H220.328V4.41406ZM232.586 15.1016H231.098V4.41406H232.586V15.1016ZM224.207 5.30469H229.281V9.41797H225.766V11.375C226.625 11.3672 227.414 11.3379 228.133 11.2871C228.852 11.2363 229.586 11.1484 230.336 11.0234L230.465 12.2305C229.645 12.375 228.826 12.4746 228.01 12.5293C227.193 12.5801 226.25 12.6055 225.18 12.6055H224.219V8.23438H227.758V6.51172H224.207V5.30469Z" fill="white"/>
<rect x="247" width="51" height="20" rx="10" fill="#222222"/>
<path d="M257.77 14H256.012V5.51562H257.77V14ZM258.871 5.51562H265.82V6.96875H263.219V14H261.473V6.96875H258.871V5.51562ZM278.242 15.0781H276.73V4.41406H278.242V15.0781ZM269.312 12.0547C270.223 11.625 270.973 11.1465 271.562 10.6191C272.156 10.0918 272.609 9.50781 272.922 8.86719C273.238 8.22266 273.438 7.5 273.52 6.69922H269.887V5.52734H275.043C275.039 6.66797 274.885 7.70508 274.58 8.63867C274.275 9.57227 273.758 10.4297 273.027 11.2109C272.301 11.9922 271.324 12.6719 270.098 13.25L269.312 12.0547ZM286.34 6.28906H280.012V5.19922H282.426V4.34375H283.914V5.19922H286.34V6.28906ZM279.695 10.2852C280.867 10.2852 281.777 10.2754 282.426 10.2559V9.6875C281.824 9.60547 281.352 9.43164 281.008 9.16602C280.668 8.89648 280.5 8.55859 280.504 8.15234C280.504 7.82422 280.613 7.53906 280.832 7.29688C281.051 7.05078 281.361 6.86328 281.764 6.73438C282.17 6.60156 282.641 6.53516 283.176 6.53516C283.699 6.53516 284.162 6.60156 284.564 6.73438C284.967 6.86328 285.279 7.05078 285.502 7.29688C285.729 7.54297 285.844 7.82812 285.848 8.15234C285.844 8.55469 285.668 8.89062 285.32 9.16016C284.973 9.42969 284.504 9.60547 283.914 9.6875V10.2031C284.883 10.1484 285.723 10.0781 286.434 9.99219L286.539 10.9883C285.531 11.1641 284.486 11.2793 283.404 11.334C282.322 11.3887 281.152 11.418 279.895 11.4219L279.695 10.2852ZM281.195 12.0547H288.613V15.0781H287.09V13.2031H281.195V12.0547ZM281.945 8.15234C281.941 8.33984 282.045 8.48438 282.256 8.58594C282.471 8.6875 282.768 8.73828 283.146 8.73828C283.533 8.73828 283.84 8.68945 284.066 8.5918C284.293 8.49023 284.406 8.34375 284.406 8.15234C284.406 7.94922 284.295 7.79492 284.072 7.68945C283.854 7.58398 283.555 7.53125 283.176 7.53125C282.785 7.53125 282.48 7.58398 282.262 7.68945C282.047 7.79492 281.941 7.94922 281.945 8.15234ZM287.09 4.4375H288.613V11.6328H287.09V4.4375Z" fill="white"/>
<rect x="303" width="81" height="20" rx="10" fill="#222222"/>
<path d="M321.082 13.7891H311.32V12.5703H321.082V13.7891ZM312.352 5.09375H313.852V6.86328H318.504V5.09375H319.992V10.7891H312.352V5.09375ZM318.504 9.61719V8.02344H313.852V9.61719H318.504ZM330.855 12.3359H329.438V8.65625H328.512V12.1133H327.117V4.61328H328.512V7.44922H329.438V4.42578H330.855V12.3359ZM322.113 5.28125H326.18V8.59766H323.566V9.69336C324.18 9.68555 324.719 9.66406 325.184 9.62891C325.652 9.58984 326.129 9.52344 326.613 9.42969L326.742 10.6133C326.156 10.7188 325.58 10.7891 325.014 10.8242C324.447 10.8555 323.73 10.8711 322.863 10.8711H322.125V7.49609H324.738V6.45312H322.113V5.28125ZM323.625 11.5859H325.125V13.6953H331.125V14.8906H323.625V11.5859ZM340.758 10.543H333.211V5.30469H340.676V6.51172H334.688V9.34766H340.758V10.543ZM332.062 12.5469H341.824V13.7773H332.062V12.5469ZM350.66 12.4766H345.539V5.42188H350.66V12.4766ZM349.172 11.293V6.59375H347.016V11.293H349.172ZM352.113 4.41406H353.613V8.43359H355.184V9.67578H353.613V15.0781H352.113V4.41406ZM360.316 5.60938C360.316 6.68359 360.211 7.62891 360 8.44531H361.148V4.64844H362.543V14.6094H361.148V9.65234H359.572C359.271 10.3047 358.859 10.9062 358.336 11.457C357.816 12.0039 357.16 12.5039 356.367 12.957L355.535 11.9375C356.199 11.5508 356.752 11.1348 357.193 10.6895C357.635 10.2441 357.984 9.75977 358.242 9.23633L355.758 9.48828L355.594 8.22266L358.658 8.05859C358.748 7.69531 358.812 7.27734 358.852 6.80469H356.121V5.60938H360.316ZM363.41 4.41406H364.816V15.0781H363.41V4.41406ZM371.695 6.34766H368.027V7.17969H371.379V8.33984H368.027V9.19531C369.086 9.19531 369.93 9.17969 370.559 9.14844C371.191 9.11719 371.82 9.05078 372.445 8.94922L372.598 10.1211C371.949 10.2266 371.293 10.2988 370.629 10.3379C369.969 10.373 369.137 10.3906 368.133 10.3906H367.441H366.527V5.15234H371.695V6.34766ZM367.57 13.0508C367.57 12.6289 367.717 12.2676 368.01 11.9668C368.303 11.6621 368.725 11.4297 369.275 11.2695C369.826 11.1055 370.48 11.0234 371.238 11.0234C371.988 11.0234 372.639 11.1055 373.189 11.2695C373.744 11.4297 374.172 11.6621 374.473 11.9668C374.773 12.2676 374.926 12.6289 374.93 13.0508C374.926 13.4766 374.773 13.8418 374.473 14.1465C374.172 14.4512 373.744 14.6816 373.189 14.8379C372.639 14.998 371.988 15.0781 371.238 15.0781C370.48 15.0781 369.826 14.998 369.275 14.8379C368.725 14.6816 368.303 14.4512 368.01 14.1465C367.717 13.8418 367.57 13.4766 367.57 13.0508ZM369.059 13.0508C369.059 13.3477 369.242 13.5703 369.609 13.7188C369.977 13.8672 370.52 13.9414 371.238 13.9414C371.949 13.9414 372.492 13.8672 372.867 13.7188C373.242 13.5664 373.43 13.3438 373.43 13.0508C373.43 12.7695 373.244 12.5547 372.873 12.4062C372.502 12.2578 371.971 12.1836 371.279 12.1836C370.549 12.1836 369.996 12.2578 369.621 12.4062C369.246 12.5508 369.059 12.7656 369.059 13.0508ZM373.371 4.42578H374.871V10.8828H373.371V4.42578Z" fill="white"/>
<rect x="389" width="79" height="20" rx="10" fill="#222222"/>
<path d="M406.949 15.0781H405.508V4.41406H406.949V15.0781ZM398.031 5.62109H402.109V6.81641H399.496V11.4629C400.09 11.4551 400.617 11.4316 401.078 11.3926C401.543 11.3535 402.016 11.2852 402.496 11.1875L402.613 12.4062C402.039 12.5195 401.463 12.5977 400.885 12.6406C400.311 12.6797 399.605 12.6992 398.77 12.6992H398.031V5.62109ZM401.383 8.30469H403.293V4.60156H404.688V14.5977H403.293V9.52344H401.383V8.30469ZM417.004 15.1016H415.492V4.41406H417.004V15.1016ZM408.391 8.96094C408.391 8.19922 408.51 7.53125 408.748 6.95703C408.99 6.38281 409.324 5.94141 409.75 5.63281C410.18 5.32031 410.668 5.16406 411.215 5.16406C411.75 5.16406 412.229 5.32031 412.65 5.63281C413.076 5.94141 413.41 6.38281 413.652 6.95703C413.895 7.53125 414.016 8.19922 414.016 8.96094C414.016 9.72656 413.895 10.3984 413.652 10.9766C413.41 11.5508 413.076 11.9941 412.65 12.3066C412.229 12.6152 411.75 12.7695 411.215 12.7695C410.668 12.7695 410.18 12.6152 409.75 12.3066C409.324 11.9941 408.99 11.5508 408.748 10.9766C408.51 10.3984 408.391 9.72656 408.391 8.96094ZM409.832 8.96094C409.832 9.48047 409.889 9.92578 410.002 10.2969C410.115 10.6641 410.275 10.9434 410.482 11.1348C410.693 11.3223 410.938 11.4141 411.215 11.4102C411.484 11.4141 411.721 11.3223 411.924 11.1348C412.131 10.9434 412.291 10.6641 412.404 10.2969C412.518 9.92578 412.574 9.48047 412.574 8.96094C412.574 8.44141 412.518 7.99805 412.404 7.63086C412.291 7.26367 412.131 6.98633 411.924 6.79883C411.721 6.60742 411.484 6.51172 411.215 6.51172C410.938 6.51172 410.693 6.60742 410.482 6.79883C410.275 6.98633 410.115 7.26367 410.002 7.63086C409.889 7.99805 409.832 8.44141 409.832 8.96094ZM427.445 15.1016H425.969V9.38281H424.094V8.17578H425.969V4.41406H427.445V15.1016ZM418.938 5.30469H423.918V6.51172H420.426V8.28125H423.531V9.45312H420.426V11.4688C421.23 11.4609 421.939 11.4395 422.553 11.4043C423.17 11.3652 423.789 11.2969 424.41 11.1992L424.562 12.3945C423.828 12.5039 423.096 12.5801 422.365 12.623C421.635 12.6621 420.773 12.6836 419.781 12.6875H418.938V5.30469ZM430.527 7.84766H432.004V5.375H433.363V8.30469H434.43V4.58984H435.836V14.6094H434.43V9.52344H433.363V12.5469H429.121V5.375H430.527V7.84766ZM432.004 11.3281V9.03125H430.527V11.3281H432.004ZM436.633 4.41406H438.062V15.0781H436.633V4.41406ZM448.117 15.1016H446.605V4.41406H448.117V15.1016ZM439.504 8.96094C439.504 8.19922 439.623 7.53125 439.861 6.95703C440.104 6.38281 440.438 5.94141 440.863 5.63281C441.293 5.32031 441.781 5.16406 442.328 5.16406C442.863 5.16406 443.342 5.32031 443.764 5.63281C444.189 5.94141 444.523 6.38281 444.766 6.95703C445.008 7.53125 445.129 8.19922 445.129 8.96094C445.129 9.72656 445.008 10.3984 444.766 10.9766C444.523 11.5508 444.189 11.9941 443.764 12.3066C443.342 12.6152 442.863 12.7695 442.328 12.7695C441.781 12.7695 441.293 12.6152 440.863 12.3066C440.438 11.9941 440.104 11.5508 439.861 10.9766C439.623 10.3984 439.504 9.72656 439.504 8.96094ZM440.945 8.96094C440.945 9.48047 441.002 9.92578 441.115 10.2969C441.229 10.6641 441.389 10.9434 441.596 11.1348C441.807 11.3223 442.051 11.4141 442.328 11.4102C442.598 11.4141 442.834 11.3223 443.037 11.1348C443.244 10.9434 443.404 10.6641 443.518 10.2969C443.631 9.92578 443.688 9.48047 443.688 8.96094C443.688 8.44141 443.631 7.99805 443.518 7.63086C443.404 7.26367 443.244 6.98633 443.037 6.79883C442.834 6.60742 442.598 6.51172 442.328 6.51172C442.051 6.51172 441.807 6.60742 441.596 6.79883C441.389 6.98633 441.229 7.26367 441.115 7.63086C441.002 7.99805 440.945 8.44141 440.945 8.96094ZM455.172 5.82031C455.168 6.35156 455.318 6.87305 455.623 7.38477C455.928 7.89258 456.367 8.33398 456.941 8.70898C457.516 9.08008 458.191 9.33203 458.969 9.46484L458.312 10.707C457.398 10.5273 456.602 10.1934 455.922 9.70508C455.246 9.21289 454.732 8.61914 454.381 7.92383C454.021 8.61523 453.502 9.20703 452.822 9.69922C452.146 10.1875 451.355 10.5234 450.449 10.707L449.805 9.46484C450.566 9.32812 451.232 9.07227 451.803 8.69727C452.373 8.32227 452.811 7.88086 453.115 7.37305C453.42 6.86133 453.574 6.34375 453.578 5.82031V5.04688H455.172V5.82031ZM449.559 12.5352H459.32V13.7656H449.559V12.5352Z" fill="white"/>
<rect x="473" width="36" height="20" rx="10" fill="#222222"/>
<path d="M481.842 7.63672H483.576V14H481.842V7.63672ZM482.709 6.80469C482.537 6.80469 482.379 6.76562 482.234 6.6875C482.09 6.60547 481.975 6.49805 481.889 6.36523C481.803 6.22852 481.76 6.08203 481.76 5.92578C481.76 5.76562 481.803 5.61719 481.889 5.48047C481.975 5.34375 482.09 5.23633 482.234 5.1582C482.379 5.07617 482.537 5.03516 482.709 5.03516C482.877 5.03516 483.033 5.07617 483.178 5.1582C483.322 5.23633 483.436 5.34375 483.518 5.48047C483.604 5.61719 483.646 5.76562 483.646 5.92578C483.646 6.08203 483.604 6.22852 483.518 6.36523C483.436 6.49805 483.322 6.60547 483.178 6.6875C483.033 6.76562 482.877 6.80469 482.709 6.80469ZM492.729 9.75781C492.729 10.6602 492.557 11.4395 492.213 12.0957C491.869 12.752 491.396 13.2539 490.795 13.6016C490.197 13.9453 489.521 14.1172 488.768 14.1172C488.01 14.1172 487.33 13.9453 486.729 13.6016C486.127 13.2539 485.654 12.752 485.311 12.0957C484.967 11.4355 484.795 10.6562 484.795 9.75781C484.795 8.85547 484.967 8.07617 485.311 7.41992C485.654 6.76367 486.127 6.26367 486.729 5.91992C487.33 5.57227 488.01 5.39844 488.768 5.39844C489.521 5.39844 490.197 5.57227 490.795 5.91992C491.396 6.26367 491.869 6.76367 492.213 7.41992C492.557 8.07617 492.729 8.85547 492.729 9.75781ZM486.588 9.75781C486.588 10.3516 486.676 10.8594 486.852 11.2812C487.031 11.6992 487.285 12.0156 487.613 12.2305C487.941 12.4453 488.326 12.5547 488.768 12.5586C489.205 12.5547 489.586 12.4453 489.91 12.2305C490.238 12.0117 490.49 11.6934 490.666 11.2754C490.846 10.8574 490.936 10.3516 490.936 9.75781C490.936 9.16406 490.846 8.6582 490.666 8.24023C490.49 7.81836 490.238 7.5 489.91 7.28516C489.586 7.07031 489.205 6.96094 488.768 6.95703C488.326 6.96094 487.941 7.07031 487.613 7.28516C487.285 7.5 487.031 7.81836 486.852 8.24023C486.676 8.6582 486.588 9.16406 486.588 9.75781ZM498.6 7.94141C498.564 7.60547 498.418 7.34375 498.16 7.15625C497.906 6.96875 497.564 6.875 497.135 6.875C496.842 6.875 496.59 6.91797 496.379 7.00391C496.172 7.08594 496.014 7.20117 495.904 7.34961C495.795 7.49805 495.74 7.66602 495.74 7.85352C495.74 8.13477 495.861 8.35742 496.104 8.52148C496.35 8.68164 496.682 8.80859 497.1 8.90234L497.861 9.08984C498.646 9.26953 499.266 9.5625 499.719 9.96875C500.172 10.3711 500.4 10.9062 500.404 11.5742C500.404 12.0898 500.273 12.5391 500.012 12.9219C499.75 13.3047 499.373 13.5996 498.881 13.8066C498.389 14.0137 497.803 14.1172 497.123 14.1172C496.436 14.1211 495.84 14.0176 495.336 13.8066C494.832 13.5957 494.439 13.2832 494.158 12.8691C493.877 12.4551 493.729 11.9492 493.713 11.3516H495.424C495.451 11.7695 495.615 12.0898 495.916 12.3125C496.221 12.5312 496.615 12.6406 497.1 12.6406C497.404 12.6406 497.672 12.5957 497.902 12.5059C498.133 12.416 498.311 12.291 498.436 12.1309C498.561 11.9707 498.623 11.7852 498.623 11.5742C498.623 11.3008 498.504 11.084 498.266 10.9238C498.031 10.7598 497.666 10.6172 497.17 10.4961L496.244 10.2734C494.705 9.89453 493.936 9.125 493.936 7.96484C493.936 7.46094 494.072 7.01562 494.346 6.62891C494.623 6.23828 495.004 5.93555 495.488 5.7207C495.977 5.50586 496.529 5.39844 497.146 5.39844C497.764 5.39844 498.309 5.50586 498.781 5.7207C499.254 5.93555 499.621 6.23633 499.883 6.62305C500.145 7.00586 500.279 7.44531 500.287 7.94141H498.6Z" fill="white"/>
<rect x="514" width="62" height="20" rx="10" fill="#222222"/>
<path d="M522.688 14L525.629 5.51562H527.891L530.82 14H528.934L528.295 12.043H525.225L524.586 14H522.688ZM527.85 10.6719L526.789 7.42578H526.73L525.67 10.6719H527.85ZM533.48 14H531.746V7.63672H533.398V8.75H533.469C533.613 8.37891 533.852 8.08789 534.184 7.87695C534.516 7.66211 534.914 7.55469 535.379 7.55469C535.82 7.55469 536.205 7.65234 536.533 7.84766C536.865 8.03906 537.121 8.31445 537.301 8.67383C537.48 9.0332 537.57 9.45703 537.57 9.94531V14H535.848V10.25C535.844 9.85547 535.74 9.54883 535.537 9.33008C535.338 9.10742 535.059 8.99609 534.699 8.99609C534.332 8.99609 534.037 9.11328 533.814 9.34766C533.592 9.58203 533.48 9.90625 533.48 10.3203V14ZM541.262 14.1055C540.77 14.1055 540.328 13.9785 539.938 13.7246C539.547 13.4668 539.238 13.0918 539.012 12.5996C538.785 12.1035 538.672 11.5117 538.672 10.8242C538.672 10.1211 538.787 9.52539 539.018 9.03711C539.248 8.54492 539.559 8.17578 539.949 7.92969C540.344 7.67969 540.781 7.55469 541.262 7.55469C541.742 7.55469 542.127 7.66602 542.416 7.88867C542.709 8.11133 542.926 8.38281 543.066 8.70312H543.125V5.51562H544.859V14H543.148V12.9805H543.066C542.922 13.2969 542.703 13.5645 542.41 13.7832C542.117 13.998 541.734 14.1055 541.262 14.1055ZM540.453 10.7949C540.453 11.377 540.568 11.8438 540.799 12.1953C541.033 12.543 541.367 12.7188 541.801 12.7227C542.086 12.7227 542.33 12.6445 542.533 12.4883C542.736 12.3281 542.891 12.1055 542.996 11.8203C543.105 11.5312 543.16 11.1953 543.16 10.8125C543.16 10.2344 543.041 9.77734 542.803 9.44141C542.564 9.10547 542.23 8.9375 541.801 8.9375C541.371 8.9375 541.039 9.10742 540.805 9.44727C540.57 9.7832 540.453 10.2324 540.453 10.7949ZM546.254 7.63672H547.93V8.73828H548C548.113 8.35547 548.307 8.06055 548.58 7.85352C548.854 7.64648 549.172 7.54297 549.535 7.54297C549.734 7.54297 549.918 7.5625 550.086 7.60156V9.14844C550.004 9.12109 549.891 9.09961 549.746 9.08398C549.602 9.06445 549.469 9.05469 549.348 9.05469C549.09 9.05469 548.855 9.11133 548.645 9.22461C548.438 9.33789 548.275 9.49609 548.158 9.69922C548.045 9.89844 547.988 10.125 547.988 10.3789V14H546.254V7.63672ZM553.59 14.1289C552.957 14.1289 552.404 13.9922 551.932 13.7188C551.463 13.4414 551.102 13.0547 550.848 12.5586C550.598 12.0625 550.473 11.4883 550.473 10.8359C550.473 10.1836 550.598 9.61133 550.848 9.11914C551.102 8.62305 551.463 8.23828 551.932 7.96484C552.404 7.69141 552.957 7.55469 553.59 7.55469C554.223 7.55469 554.773 7.69141 555.242 7.96484C555.715 8.23828 556.078 8.62305 556.332 9.11914C556.59 9.61133 556.719 10.1836 556.719 10.8359C556.719 11.4883 556.59 12.0625 556.332 12.5586C556.078 13.0547 555.715 13.4414 555.242 13.7188C554.773 13.9922 554.223 14.1289 553.59 14.1289ZM552.23 10.8359C552.23 11.2148 552.281 11.5508 552.383 11.8438C552.488 12.1328 552.645 12.3613 552.852 12.5293C553.059 12.6973 553.309 12.7812 553.602 12.7812C553.887 12.7812 554.131 12.6992 554.334 12.5352C554.537 12.3672 554.689 12.1387 554.791 11.8496C554.896 11.5605 554.949 11.2305 554.949 10.8594C554.949 10.4766 554.898 10.1367 554.797 9.83984C554.695 9.53906 554.543 9.30469 554.34 9.13672C554.137 8.96484 553.891 8.87891 553.602 8.87891C553.309 8.87891 553.059 8.96289 552.852 9.13086C552.645 9.29883 552.488 9.53125 552.383 9.82812C552.281 10.1211 552.23 10.457 552.23 10.8359ZM557.809 7.63672H559.543V14H557.809V7.63672ZM558.676 6.80469C558.504 6.80469 558.346 6.76562 558.201 6.6875C558.057 6.60547 557.941 6.49805 557.855 6.36523C557.77 6.22852 557.727 6.08203 557.727 5.92578C557.727 5.76562 557.77 5.61719 557.855 5.48047C557.941 5.34375 558.057 5.23633 558.201 5.1582C558.346 5.07617 558.504 5.03516 558.676 5.03516C558.844 5.03516 559 5.07617 559.145 5.1582C559.289 5.23633 559.402 5.34375 559.484 5.48047C559.57 5.61719 559.613 5.76562 559.613 5.92578C559.613 6.08203 559.57 6.22852 559.484 6.36523C559.402 6.49805 559.289 6.60547 559.145 6.6875C559 6.76562 558.844 6.80469 558.676 6.80469ZM563.234 14.1055C562.742 14.1055 562.301 13.9785 561.91 13.7246C561.52 13.4668 561.211 13.0918 560.984 12.5996C560.758 12.1035 560.645 11.5117 560.645 10.8242C560.645 10.1211 560.76 9.52539 560.99 9.03711C561.221 8.54492 561.531 8.17578 561.922 7.92969C562.316 7.67969 562.754 7.55469 563.234 7.55469C563.715 7.55469 564.1 7.66602 564.389 7.88867C564.682 8.11133 564.898 8.38281 565.039 8.70312H565.098V5.51562H566.832V14H565.121V12.9805H565.039C564.895 13.2969 564.676 13.5645 564.383 13.7832C564.09 13.998 563.707 14.1055 563.234 14.1055ZM562.426 10.7949C562.426 11.377 562.541 11.8438 562.771 12.1953C563.006 12.543 563.34 12.7188 563.773 12.7227C564.059 12.7227 564.303 12.6445 564.506 12.4883C564.709 12.3281 564.863 12.1055 564.969 11.8203C565.078 11.5312 565.133 11.1953 565.133 10.8125C565.133 10.2344 565.014 9.77734 564.775 9.44141C564.537 9.10547 564.203 8.9375 563.773 8.9375C563.344 8.9375 563.012 9.10742 562.777 9.44727C562.543 9.7832 562.426 10.2324 562.426 10.7949Z" fill="white"/>
<rect x="581" width="58" height="20" rx="10" fill="#222222"/>
<path d="M598.82 15.0781H597.379V4.41406H598.82V15.0781ZM589.902 5.62109H593.98V6.81641H591.367V11.4629C591.961 11.4551 592.488 11.4316 592.949 11.3926C593.414 11.3535 593.887 11.2852 594.367 11.1875L594.484 12.4062C593.91 12.5195 593.334 12.5977 592.756 12.6406C592.182 12.6797 591.477 12.6992 590.641 12.6992H589.902V5.62109ZM593.254 8.30469H595.164V4.60156H596.559V14.5977H595.164V9.52344H593.254V8.30469ZM609.707 13.7891H599.945V12.5703H609.707V13.7891ZM600.977 5.09375H602.477V6.86328H607.129V5.09375H608.617V10.7891H600.977V5.09375ZM607.129 9.61719V8.02344H602.477V9.61719H607.129ZM615.18 4.54297C615.973 4.54297 616.66 4.62109 617.242 4.77734C617.824 4.93359 618.271 5.16211 618.584 5.46289C618.9 5.76367 619.059 6.125 619.059 6.54688C619.059 6.92188 618.932 7.25195 618.678 7.53711C618.424 7.81836 618.059 8.04492 617.582 8.2168C617.109 8.38867 616.547 8.49609 615.895 8.53906V9.24219H620.043V10.4375H610.316V9.24219H614.43V8.5332C613.781 8.48633 613.221 8.37891 612.748 8.21094C612.279 8.03906 611.918 7.8125 611.664 7.53125C611.414 7.24609 611.289 6.91797 611.289 6.54688C611.289 6.125 611.447 5.76367 611.764 5.46289C612.08 5.16211 612.529 4.93359 613.111 4.77734C613.697 4.62109 614.387 4.54297 615.18 4.54297ZM611.453 10.9062H612.93V11.7617H617.371V10.9062H618.871V14.9609H611.453V10.9062ZM612.848 6.54688C612.844 6.83203 613.043 7.05078 613.445 7.20312C613.848 7.35156 614.426 7.42578 615.18 7.42578C615.926 7.42578 616.5 7.35156 616.902 7.20312C617.309 7.05078 617.512 6.83203 617.512 6.54688C617.512 6.25391 617.311 6.03125 616.908 5.87891C616.506 5.72266 615.93 5.64453 615.18 5.64453C614.422 5.64453 613.842 5.72266 613.439 5.87891C613.041 6.03125 612.844 6.25391 612.848 6.54688ZM617.371 13.7656V12.8984H612.93V13.7656H617.371ZM626.301 5.82031C626.297 6.35156 626.447 6.87305 626.752 7.38477C627.057 7.89258 627.496 8.33398 628.07 8.70898C628.645 9.08008 629.32 9.33203 630.098 9.46484L629.441 10.707C628.527 10.5273 627.73 10.1934 627.051 9.70508C626.375 9.21289 625.861 8.61914 625.51 7.92383C625.15 8.61523 624.631 9.20703 623.951 9.69922C623.275 10.1875 622.484 10.5234 621.578 10.707L620.934 9.46484C621.695 9.32812 622.361 9.07227 622.932 8.69727C623.502 8.32227 623.939 7.88086 624.244 7.37305C624.549 6.86133 624.703 6.34375 624.707 5.82031V5.04688H626.301V5.82031ZM620.688 12.5352H630.449V13.7656H620.688V12.5352Z" fill="white"/>
<rect y="35" width="92" height="20" rx="10" fill="#222222"/>
<path d="M17.5645 47.0898H16.0645V39.4258H17.5645V47.0898ZM8.79883 42.7891C8.79883 42.2773 8.92773 41.8164 9.18555 41.4062C9.44336 40.9961 9.79297 40.6777 10.2344 40.4512C10.6797 40.2207 11.1738 40.1055 11.7168 40.1055C12.2559 40.1055 12.748 40.2207 13.1934 40.4512C13.6387 40.6777 13.9902 40.9961 14.248 41.4062C14.5059 41.8164 14.6348 42.2773 14.6348 42.7891C14.6348 43.3086 14.5059 43.7754 14.248 44.1895C13.9902 44.5996 13.6387 44.9199 13.1934 45.1504C12.748 45.3809 12.2559 45.4961 11.7168 45.4961C11.1738 45.4961 10.6797 45.3809 10.2344 45.1504C9.78906 44.9199 9.4375 44.5996 9.17969 44.1895C8.92578 43.7754 8.79883 43.3086 8.79883 42.7891ZM10.2637 42.7891C10.2598 43.0781 10.3203 43.3301 10.4453 43.5449C10.5703 43.7559 10.7422 43.918 10.9609 44.0312C11.1836 44.1406 11.4355 44.1953 11.7168 44.1953C11.9902 44.1953 12.2344 44.1406 12.4492 44.0312C12.668 43.918 12.8398 43.7559 12.9648 43.5449C13.0938 43.3301 13.1582 43.0781 13.1582 42.7891C13.1582 42.5078 13.0938 42.2617 12.9648 42.0508C12.8398 41.8398 12.668 41.6797 12.4492 41.5703C12.2305 41.457 11.9863 41.4023 11.7168 41.4062C11.4355 41.4023 11.1836 41.457 10.9609 41.5703C10.7422 41.6797 10.5703 41.8398 10.4453 42.0508C10.3203 42.2617 10.2598 42.5078 10.2637 42.7891ZM10.416 46.3164H11.9277V48.6953H17.8457V49.8906H10.416V46.3164ZM23.8105 46.0586C24.5879 46.0586 25.2617 46.1387 25.832 46.2988C26.4023 46.4551 26.8418 46.6855 27.1504 46.9902C27.459 47.291 27.6152 47.6523 27.6191 48.0742C27.6152 48.4883 27.459 48.8457 27.1504 49.1465C26.8418 49.4512 26.4004 49.6816 25.8262 49.8379C25.2559 49.998 24.584 50.0781 23.8105 50.0781C23.041 50.0781 22.3691 49.998 21.7949 49.8379C21.2246 49.6816 20.7852 49.4512 20.4766 49.1465C20.168 48.8457 20.0137 48.4883 20.0137 48.0742C20.0137 47.6523 20.168 47.291 20.4766 46.9902C20.7852 46.6855 21.2246 46.4551 21.7949 46.2988C22.3691 46.1387 23.041 46.0586 23.8105 46.0586ZM19.0293 44.1719H22.6621V42.3086H24.1387V44.1719H28.709V45.3789H19.0293V44.1719ZM20.1191 39.8945H27.5605V40.7617V41.0723C27.5605 41.541 27.541 41.9746 27.502 42.373C27.4629 42.7715 27.3809 43.1875 27.2559 43.6211L25.791 43.4805C25.9004 43.043 25.9727 42.6445 26.0078 42.2852C26.043 41.9219 26.0645 41.5156 26.0723 41.0664H20.1191V39.8945ZM21.502 48.0742C21.498 48.3594 21.6953 48.5762 22.0938 48.7246C22.4961 48.8691 23.0684 48.9414 23.8105 48.9414C24.5527 48.9414 25.125 48.8691 25.5273 48.7246C25.9297 48.5762 26.1309 48.3594 26.1309 48.0742C26.1309 47.7812 25.9316 47.5586 25.5332 47.4062C25.1387 47.25 24.5781 47.1719 23.8516 47.1719C23.0938 47.1719 22.5117 47.248 22.1055 47.4004C21.6992 47.5527 21.498 47.7773 21.502 48.0742ZM33.5137 42.3203C33.5098 42.9102 33.6094 43.4902 33.8125 44.0605C34.0156 44.627 34.3184 45.1387 34.7207 45.5957C35.123 46.0488 35.6113 46.3945 36.1855 46.6328L35.377 47.8047C34.7676 47.5469 34.2441 47.1699 33.8066 46.6738C33.3691 46.1738 33.0254 45.5898 32.7754 44.9219C32.5254 45.6445 32.1777 46.2812 31.7324 46.832C31.291 47.3789 30.7637 47.793 30.1504 48.0742L29.2949 46.8906C29.8652 46.6367 30.3516 46.2676 30.7539 45.7832C31.1602 45.2988 31.4648 44.7559 31.668 44.1543C31.875 43.5488 31.9785 42.9375 31.9785 42.3203V41.6641H29.7168V40.4453H35.7402V41.6641H33.5137V42.3203ZM36.7949 39.4141H38.3066V50.0781H36.7949V39.4141ZM48.3965 43.2812H40.9785V39.5781H42.4668V42.0859H48.3965V43.2812ZM39.748 44.1953H49.498V45.4141H39.748V44.1953ZM40.8613 48.0625C40.8613 47.6445 41.0098 47.2891 41.3066 46.9961C41.6074 46.6992 42.0371 46.4727 42.5957 46.3164C43.1543 46.1602 43.8223 46.082 44.5996 46.082C45.3691 46.082 46.0312 46.1602 46.5859 46.3164C47.1406 46.4727 47.5664 46.6992 47.8633 46.9961C48.1602 47.2891 48.3105 47.6445 48.3145 48.0625C48.3105 48.4844 48.1602 48.8418 47.8633 49.1348C47.5664 49.4316 47.1406 49.6562 46.5859 49.8086C46.0312 49.9648 45.3691 50.043 44.5996 50.043C43.8223 50.043 43.1523 49.9648 42.5898 49.8086C42.0312 49.6562 41.6035 49.4316 41.3066 49.1348C41.0098 48.8379 40.8613 48.4805 40.8613 48.0625ZM42.3848 48.0625C42.3809 48.6172 43.1191 48.8984 44.5996 48.9062C45.3262 48.9023 45.875 48.8301 46.2461 48.6895C46.6211 48.5488 46.8105 48.3398 46.8145 48.0625C46.8105 47.7852 46.625 47.582 46.2578 47.4531C45.8906 47.3203 45.3379 47.25 44.5996 47.2422C43.8496 47.25 43.291 47.3184 42.9238 47.4473C42.5605 47.5762 42.3809 47.7812 42.3848 48.0625ZM62.1309 50.0781H60.6895V39.4141H62.1309V50.0781ZM53.2129 40.6211H57.291V41.8164H54.6777V46.4629C55.2715 46.4551 55.7988 46.4316 56.2598 46.3926C56.7246 46.3535 57.1973 46.2852 57.6777 46.1875L57.7949 47.4062C57.2207 47.5195 56.6445 47.5977 56.0664 47.6406C55.4922 47.6797 54.7871 47.6992 53.9512 47.6992H53.2129V40.6211ZM56.5645 43.3047H58.4746V39.6016H59.8691V49.5977H58.4746V44.5234H56.5645V43.3047ZM72.1855 50.1016H70.6738V39.4141H72.1855V50.1016ZM63.5723 43.9609C63.5723 43.1992 63.6914 42.5312 63.9297 41.957C64.1719 41.3828 64.5059 40.9414 64.9316 40.6328C65.3613 40.3203 65.8496 40.1641 66.3965 40.1641C66.9316 40.1641 67.4102 40.3203 67.832 40.6328C68.2578 40.9414 68.5918 41.3828 68.834 41.957C69.0762 42.5312 69.1973 43.1992 69.1973 43.9609C69.1973 44.7266 69.0762 45.3984 68.834 45.9766C68.5918 46.5508 68.2578 46.9941 67.832 47.3066C67.4102 47.6152 66.9316 47.7695 66.3965 47.7695C65.8496 47.7695 65.3613 47.6152 64.9316 47.3066C64.5059 46.9941 64.1719 46.5508 63.9297 45.9766C63.6914 45.3984 63.5723 44.7266 63.5723 43.9609ZM65.0137 43.9609C65.0137 44.4805 65.0703 44.9258 65.1836 45.2969C65.2969 45.6641 65.457 45.9434 65.6641 46.1348C65.875 46.3223 66.1191 46.4141 66.3965 46.4102C66.666 46.4141 66.9023 46.3223 67.1055 46.1348C67.3125 45.9434 67.4727 45.6641 67.5859 45.2969C67.6992 44.9258 67.7559 44.4805 67.7559 43.9609C67.7559 43.4414 67.6992 42.998 67.5859 42.6309C67.4727 42.2637 67.3125 41.9863 67.1055 41.7988C66.9023 41.6074 66.666 41.5117 66.3965 41.5117C66.1191 41.5117 65.875 41.6074 65.6641 41.7988C65.457 41.9863 65.2969 42.2637 65.1836 42.6309C65.0703 42.998 65.0137 43.4414 65.0137 43.9609ZM82.627 50.1016H81.1504V44.3828H79.2754V43.1758H81.1504V39.4141H82.627V50.1016ZM74.1191 40.3047H79.0996V41.5117H75.6074V43.2812H78.7129V44.4531H75.6074V46.4688C76.4121 46.4609 77.1211 46.4395 77.7344 46.4043C78.3516 46.3652 78.9707 46.2969 79.5918 46.1992L79.7441 47.3945C79.0098 47.5039 78.2773 47.5801 77.5469 47.623C76.8164 47.6621 75.9551 47.6836 74.9629 47.6875H74.1191V40.3047Z" fill="white"/>
<rect x="97" y="35" width="48" height="20" rx="10" fill="#222222"/>
<path d="M111.35 43.7734H115.486V44.957H105.76V43.7734H109.873V42.625H111.35V43.7734ZM106.229 42.1094C107.018 42.0352 107.682 41.8848 108.221 41.6582C108.764 41.4277 109.17 41.1465 109.439 40.8145C109.709 40.4824 109.846 40.1211 109.85 39.7305V39.5078H111.373V39.7305C111.369 40.1211 111.5 40.4824 111.766 40.8145C112.035 41.1465 112.439 41.4277 112.979 41.6582C113.518 41.8848 114.182 42.0352 114.971 42.1094L114.455 43.2461C113.541 43.1367 112.756 42.9258 112.1 42.6133C111.443 42.3008 110.943 41.8984 110.6 41.4062C110.26 41.8984 109.762 42.3008 109.105 42.6133C108.449 42.9258 107.662 43.1367 106.744 43.2461L106.229 42.1094ZM106.885 45.4961H114.303V48.25H108.361V48.8828H114.584V50.0078H106.896V47.1953H112.826V46.6328H106.885V45.4961ZM124.756 42.918H118.791V43.8086H125.002V45.0039H117.279V41.793H123.221V40.9492H117.244V39.7422H124.756V42.918ZM116.119 45.8008H125.881V46.9961H121.732V50.1016H120.232V46.9961H116.119V45.8008ZM130.498 41.2539C130.498 41.7617 130.584 42.248 130.756 42.7129C130.932 43.1777 131.199 43.5938 131.559 43.9609C131.922 44.3281 132.373 44.6133 132.912 44.8164L132.08 45.9766C131.537 45.7617 131.07 45.4551 130.68 45.0566C130.289 44.6543 129.98 44.1836 129.754 43.6445C129.516 44.2188 129.188 44.7168 128.77 45.1387C128.352 45.5605 127.846 45.8828 127.252 46.1055L126.455 44.9336C127.018 44.7344 127.488 44.4473 127.867 44.0723C128.246 43.6973 128.525 43.2695 128.705 42.7891C128.889 42.3047 128.982 41.793 128.986 41.2539V40.0234H130.498V41.2539ZM128.389 46.5742H129.9V48.6953H135.713V49.8906H128.389V46.5742ZM132.174 42.8711H134.002V42.0156H132.174V40.8086H134.002V39.4258H135.49V47.3359H134.002V44.0781H132.174V42.8711Z" fill="white"/>
<rect x="150" y="35" width="71" height="20" rx="10" fill="#222222"/>
<path d="M167.799 45.9766H166.369V39.4141H167.799V45.9766ZM158.436 43.3633C160.795 43.3633 162.607 43.2656 163.873 43.0703L163.979 44.0664C163.408 44.1914 162.752 44.2891 162.01 44.3594V45.918H160.58V44.4473C160.08 44.4668 159.412 44.4766 158.576 44.4766L158.436 43.3633ZM158.881 41.3711C158.881 41.0469 158.979 40.7656 159.174 40.5273C159.369 40.2852 159.643 40.0996 159.994 39.9707C160.35 39.8418 160.76 39.7773 161.225 39.7773C161.689 39.7773 162.1 39.8418 162.455 39.9707C162.811 40.0996 163.086 40.2852 163.281 40.5273C163.48 40.7656 163.58 41.0469 163.58 41.3711C163.58 41.6875 163.48 41.9668 163.281 42.209C163.086 42.4512 162.811 42.6406 162.455 42.7773C162.1 42.9102 161.689 42.9766 161.225 42.9766C160.764 42.9766 160.355 42.9102 160 42.7773C159.645 42.6406 159.369 42.4512 159.174 42.209C158.979 41.9668 158.881 41.6875 158.881 41.3711ZM160.182 46.3164H161.658V47.0312H166.311V46.3164H167.799V49.9609H160.182V46.3164ZM160.24 41.3594C160.24 41.7344 160.568 41.9258 161.225 41.9336C161.549 41.9297 161.799 41.8828 161.975 41.793C162.154 41.6992 162.244 41.5586 162.244 41.3711C162.244 41.1836 162.154 41.043 161.975 40.9492C161.795 40.8555 161.545 40.8086 161.225 40.8086C160.912 40.8086 160.67 40.8555 160.498 40.9492C160.326 41.043 160.24 41.1797 160.24 41.3594ZM166.311 48.8125V48.168H161.658V48.8125H166.311ZM162.725 44.6055H164.33V39.5898H165.736V45.9648H164.33V45.6016H162.725V44.6055ZM180.572 50.1016H179.061V39.4141H180.572V50.1016ZM172.287 40.3516H177.479V41.5703H173.787V46.293C174.795 46.293 175.623 46.2734 176.271 46.2344C176.924 46.1914 177.572 46.1133 178.217 46L178.357 47.2305C177.658 47.3633 176.938 47.4512 176.195 47.4941C175.453 47.5371 174.459 47.5586 173.213 47.5586H172.287V40.3516ZM185.951 42.3203C185.947 42.8789 186.045 43.4395 186.244 44.002C186.443 44.5645 186.738 45.0781 187.129 45.543C187.523 46.0078 188.002 46.3711 188.564 46.6328L187.732 47.8047C187.158 47.5391 186.658 47.1543 186.232 46.6504C185.807 46.1426 185.469 45.5566 185.219 44.8926C184.973 45.6191 184.629 46.2617 184.188 46.8203C183.75 47.375 183.232 47.793 182.635 48.0742L181.768 46.8906C182.338 46.625 182.824 46.248 183.227 45.7598C183.629 45.2715 183.932 44.7285 184.135 44.1309C184.342 43.5293 184.447 42.9258 184.451 42.3203V41.6641H182.189V40.4453H188.096V41.6641H185.951V42.3203ZM188.928 39.4141H190.428V43.4805H191.998V44.7344H190.428V50.0781H188.928V39.4141ZM201.314 50.1016H199.803V39.4141H201.314V50.1016ZM192.701 43.9609C192.701 43.1992 192.82 42.5312 193.059 41.957C193.301 41.3828 193.635 40.9414 194.061 40.6328C194.49 40.3203 194.979 40.1641 195.525 40.1641C196.061 40.1641 196.539 40.3203 196.961 40.6328C197.387 40.9414 197.721 41.3828 197.963 41.957C198.205 42.5312 198.326 43.1992 198.326 43.9609C198.326 44.7266 198.205 45.3984 197.963 45.9766C197.721 46.5508 197.387 46.9941 196.961 47.3066C196.539 47.6152 196.061 47.7695 195.525 47.7695C194.979 47.7695 194.49 47.6152 194.061 47.3066C193.635 46.9941 193.301 46.5508 193.059 45.9766C192.82 45.3984 192.701 44.7266 192.701 43.9609ZM194.143 43.9609C194.143 44.4805 194.199 44.9258 194.312 45.2969C194.426 45.6641 194.586 45.9434 194.793 46.1348C195.004 46.3223 195.248 46.4141 195.525 46.4102C195.795 46.4141 196.031 46.3223 196.234 46.1348C196.441 45.9434 196.602 45.6641 196.715 45.2969C196.828 44.9258 196.885 44.4805 196.885 43.9609C196.885 43.4414 196.828 42.998 196.715 42.6309C196.602 42.2637 196.441 41.9863 196.234 41.7988C196.031 41.6074 195.795 41.5117 195.525 41.5117C195.248 41.5117 195.004 41.6074 194.793 41.7988C194.586 41.9863 194.426 42.2637 194.312 42.6309C194.199 42.998 194.143 43.4414 194.143 43.9609ZM211.768 50.1016H210.279V43.9258H207.361V42.707H210.279V39.4141H211.768V50.1016ZM203.307 40.5508H204.807V46.3457C206.279 46.3184 207.678 46.1797 209.002 45.9297L209.166 47.1484C208.365 47.3164 207.561 47.4336 206.752 47.5C205.947 47.5625 205.1 47.5938 204.209 47.5938H203.307V40.5508Z" fill="white"/>
<rect x="226" y="35" width="92" height="20" rx="10" fill="#222222"/>
<path d="M243.881 50.0781H242.439V39.4141H243.881V50.0781ZM234.963 40.6211H239.041V41.8164H236.428V46.4629C237.021 46.4551 237.549 46.4316 238.01 46.3926C238.475 46.3535 238.947 46.2852 239.428 46.1875L239.545 47.4062C238.971 47.5195 238.395 47.5977 237.816 47.6406C237.242 47.6797 236.537 47.6992 235.701 47.6992H234.963V40.6211ZM238.314 43.3047H240.225V39.6016H241.619V49.5977H240.225V44.5234H238.314V43.3047ZM253.936 50.1016H252.424V39.4141H253.936V50.1016ZM245.322 43.9609C245.322 43.1992 245.441 42.5312 245.68 41.957C245.922 41.3828 246.256 40.9414 246.682 40.6328C247.111 40.3203 247.6 40.1641 248.146 40.1641C248.682 40.1641 249.16 40.3203 249.582 40.6328C250.008 40.9414 250.342 41.3828 250.584 41.957C250.826 42.5312 250.947 43.1992 250.947 43.9609C250.947 44.7266 250.826 45.3984 250.584 45.9766C250.342 46.5508 250.008 46.9941 249.582 47.3066C249.16 47.6152 248.682 47.7695 248.146 47.7695C247.6 47.7695 247.111 47.6152 246.682 47.3066C246.256 46.9941 245.922 46.5508 245.68 45.9766C245.441 45.3984 245.322 44.7266 245.322 43.9609ZM246.764 43.9609C246.764 44.4805 246.82 44.9258 246.934 45.2969C247.047 45.6641 247.207 45.9434 247.414 46.1348C247.625 46.3223 247.869 46.4141 248.146 46.4102C248.416 46.4141 248.652 46.3223 248.855 46.1348C249.062 45.9434 249.223 45.6641 249.336 45.2969C249.449 44.9258 249.506 44.4805 249.506 43.9609C249.506 43.4414 249.449 42.998 249.336 42.6309C249.223 42.2637 249.062 41.9863 248.855 41.7988C248.652 41.6074 248.416 41.5117 248.146 41.5117C247.869 41.5117 247.625 41.6074 247.414 41.7988C247.207 41.9863 247.047 42.2637 246.934 42.6309C246.82 42.998 246.764 43.4414 246.764 43.9609ZM264.377 50.1016H262.9V44.3828H261.025V43.1758H262.9V39.4141H264.377V50.1016ZM255.869 40.3047H260.85V41.5117H257.357V43.2812H260.463V44.4531H257.357V46.4688C258.162 46.4609 258.871 46.4395 259.484 46.4043C260.102 46.3652 260.721 46.2969 261.342 46.1992L261.494 47.3945C260.76 47.5039 260.027 47.5801 259.297 47.623C258.566 47.6621 257.705 47.6836 256.713 47.6875H255.869V40.3047ZM271.01 40.1992C271.42 40.1992 271.795 40.2871 272.135 40.4629C272.475 40.6348 272.758 40.8809 272.984 41.2012C273.211 41.5176 273.361 41.8867 273.436 42.3086H274.139V39.5781H275.521V47.0312H274.139V43.5273H273.418C273.336 43.9336 273.182 44.291 272.955 44.5996C272.729 44.9043 272.447 45.1426 272.111 45.3145C271.775 45.4824 271.408 45.5664 271.01 45.5664C270.541 45.5664 270.119 45.4531 269.744 45.2266C269.373 44.9961 269.082 44.6777 268.871 44.2715C268.664 43.8613 268.561 43.3984 268.561 42.8828C268.561 42.3594 268.664 41.8945 268.871 41.4883C269.082 41.0781 269.373 40.7617 269.744 40.5391C270.115 40.3125 270.537 40.1992 271.01 40.1992ZM269.896 42.8652C269.896 43.3066 269.998 43.6523 270.201 43.9023C270.404 44.1523 270.674 44.2773 271.01 44.2773C271.229 44.2773 271.422 44.2227 271.59 44.1133C271.762 44 271.896 43.8398 271.994 43.6328C272.092 43.4219 272.143 43.1719 272.146 42.8828C272.143 42.5938 272.092 42.3418 271.994 42.127C271.896 41.9121 271.762 41.748 271.59 41.6348C271.422 41.5215 271.229 41.4648 271.01 41.4648C270.791 41.4648 270.598 41.5215 270.43 41.6348C270.262 41.748 270.131 41.9102 270.037 42.1211C269.943 42.332 269.896 42.5801 269.896 42.8652ZM270.447 46.3281H271.947V48.6953H277.947V49.8906H270.447V46.3281ZM276.26 39.4141H277.678V47.3594H276.26V39.4141ZM283.021 42.3203C283.018 42.9102 283.117 43.4902 283.32 44.0605C283.523 44.627 283.826 45.1387 284.229 45.5957C284.631 46.0488 285.119 46.3945 285.693 46.6328L284.885 47.8047C284.275 47.5469 283.752 47.1699 283.314 46.6738C282.877 46.1738 282.533 45.5898 282.283 44.9219C282.033 45.6445 281.686 46.2812 281.24 46.832C280.799 47.3789 280.271 47.793 279.658 48.0742L278.803 46.8906C279.373 46.6367 279.859 46.2676 280.262 45.7832C280.668 45.2988 280.973 44.7559 281.176 44.1543C281.383 43.5488 281.486 42.9375 281.486 42.3203V41.6641H279.225V40.4453H285.248V41.6641H283.021V42.3203ZM286.303 39.4141H287.814V50.0781H286.303V39.4141ZM298.221 50.0781H296.732V39.4141H298.221V50.0781ZM289.83 40.4336H291.307V46.1699C292.889 46.1426 294.408 45.9883 295.865 45.707L296.053 46.9375C294.42 47.2812 292.658 47.4492 290.768 47.4414H289.83V40.4336ZM302.568 40.1641C303.045 40.1641 303.477 40.2891 303.863 40.5391C304.254 40.7891 304.572 41.1484 304.818 41.6172C305.068 42.0859 305.229 42.6367 305.299 43.2695H307.15V39.4141H308.627V50.1016H307.15V44.4648H305.316C305.266 45.1367 305.117 45.7227 304.871 46.2227C304.625 46.7227 304.303 47.1055 303.904 47.3711C303.51 47.6367 303.064 47.7695 302.568 47.7695C302.029 47.7695 301.549 47.6152 301.127 47.3066C300.709 46.9941 300.383 46.5508 300.148 45.9766C299.914 45.3984 299.799 44.7266 299.803 43.9609C299.799 43.1992 299.914 42.5312 300.148 41.957C300.383 41.3828 300.709 40.9414 301.127 40.6328C301.549 40.3203 302.029 40.1641 302.568 40.1641ZM301.232 43.9609C301.232 44.4805 301.287 44.9258 301.396 45.2969C301.506 45.6641 301.662 45.9434 301.865 46.1348C302.068 46.3223 302.303 46.4141 302.568 46.4102C302.838 46.4141 303.072 46.3223 303.271 46.1348C303.475 45.9434 303.631 45.6641 303.74 45.2969C303.85 44.9258 303.904 44.4805 303.904 43.9609C303.904 43.4414 303.85 42.998 303.74 42.6309C303.631 42.2637 303.475 41.9863 303.271 41.7988C303.072 41.6074 302.838 41.5117 302.568 41.5117C302.303 41.5117 302.068 41.6074 301.865 41.7988C301.662 41.9863 301.506 42.2656 301.396 42.6367C301.287 43.0039 301.232 43.4453 301.232 43.9609Z" fill="white"/>
<rect x="323" y="35" width="58" height="20" rx="10" fill="#222222"/>
<path d="M340.504 47.0898H339.004V39.4258H340.504V47.0898ZM331.738 42.7891C331.738 42.2773 331.867 41.8164 332.125 41.4062C332.383 40.9961 332.732 40.6777 333.174 40.4512C333.619 40.2207 334.113 40.1055 334.656 40.1055C335.195 40.1055 335.688 40.2207 336.133 40.4512C336.578 40.6777 336.93 40.9961 337.188 41.4062C337.445 41.8164 337.574 42.2773 337.574 42.7891C337.574 43.3086 337.445 43.7754 337.188 44.1895C336.93 44.5996 336.578 44.9199 336.133 45.1504C335.688 45.3809 335.195 45.4961 334.656 45.4961C334.113 45.4961 333.619 45.3809 333.174 45.1504C332.729 44.9199 332.377 44.5996 332.119 44.1895C331.865 43.7754 331.738 43.3086 331.738 42.7891ZM333.203 42.7891C333.199 43.0781 333.26 43.3301 333.385 43.5449C333.51 43.7559 333.682 43.918 333.9 44.0312C334.123 44.1406 334.375 44.1953 334.656 44.1953C334.93 44.1953 335.174 44.1406 335.389 44.0312C335.607 43.918 335.779 43.7559 335.904 43.5449C336.033 43.3301 336.098 43.0781 336.098 42.7891C336.098 42.5078 336.033 42.2617 335.904 42.0508C335.779 41.8398 335.607 41.6797 335.389 41.5703C335.17 41.457 334.926 41.4023 334.656 41.4062C334.375 41.4023 334.123 41.457 333.9 41.5703C333.682 41.6797 333.51 41.8398 333.385 42.0508C333.26 42.2617 333.199 42.5078 333.203 42.7891ZM333.355 46.3164H334.867V48.6953H340.785V49.8906H333.355V46.3164ZM346.75 46.0586C347.527 46.0586 348.201 46.1387 348.771 46.2988C349.342 46.4551 349.781 46.6855 350.09 46.9902C350.398 47.291 350.555 47.6523 350.559 48.0742C350.555 48.4883 350.398 48.8457 350.09 49.1465C349.781 49.4512 349.34 49.6816 348.766 49.8379C348.195 49.998 347.523 50.0781 346.75 50.0781C345.98 50.0781 345.309 49.998 344.734 49.8379C344.164 49.6816 343.725 49.4512 343.416 49.1465C343.107 48.8457 342.953 48.4883 342.953 48.0742C342.953 47.6523 343.107 47.291 343.416 46.9902C343.725 46.6855 344.164 46.4551 344.734 46.2988C345.309 46.1387 345.98 46.0586 346.75 46.0586ZM341.969 44.1719H345.602V42.3086H347.078V44.1719H351.648V45.3789H341.969V44.1719ZM343.059 39.8945H350.5V40.7617V41.0723C350.5 41.541 350.48 41.9746 350.441 42.373C350.402 42.7715 350.32 43.1875 350.195 43.6211L348.73 43.4805C348.84 43.043 348.912 42.6445 348.947 42.2852C348.982 41.9219 349.004 41.5156 349.012 41.0664H343.059V39.8945ZM344.441 48.0742C344.438 48.3594 344.635 48.5762 345.033 48.7246C345.436 48.8691 346.008 48.9414 346.75 48.9414C347.492 48.9414 348.064 48.8691 348.467 48.7246C348.869 48.5762 349.07 48.3594 349.07 48.0742C349.07 47.7812 348.871 47.5586 348.473 47.4062C348.078 47.25 347.518 47.1719 346.791 47.1719C346.033 47.1719 345.451 47.248 345.045 47.4004C344.639 47.5527 344.438 47.7773 344.441 48.0742ZM356.453 42.3203C356.449 42.9102 356.549 43.4902 356.752 44.0605C356.955 44.627 357.258 45.1387 357.66 45.5957C358.062 46.0488 358.551 46.3945 359.125 46.6328L358.316 47.8047C357.707 47.5469 357.184 47.1699 356.746 46.6738C356.309 46.1738 355.965 45.5898 355.715 44.9219C355.465 45.6445 355.117 46.2812 354.672 46.832C354.23 47.3789 353.703 47.793 353.09 48.0742L352.234 46.8906C352.805 46.6367 353.291 46.2676 353.693 45.7832C354.1 45.2988 354.404 44.7559 354.607 44.1543C354.814 43.5488 354.918 42.9375 354.918 42.3203V41.6641H352.656V40.4453H358.68V41.6641H356.453V42.3203ZM359.734 39.4141H361.246V50.0781H359.734V39.4141ZM371.336 43.2812H363.918V39.5781H365.406V42.0859H371.336V43.2812ZM362.688 44.1953H372.438V45.4141H362.688V44.1953ZM363.801 48.0625C363.801 47.6445 363.949 47.2891 364.246 46.9961C364.547 46.6992 364.977 46.4727 365.535 46.3164C366.094 46.1602 366.762 46.082 367.539 46.082C368.309 46.082 368.971 46.1602 369.525 46.3164C370.08 46.4727 370.506 46.6992 370.803 46.9961C371.1 47.2891 371.25 47.6445 371.254 48.0625C371.25 48.4844 371.1 48.8418 370.803 49.1348C370.506 49.4316 370.08 49.6562 369.525 49.8086C368.971 49.9648 368.309 50.043 367.539 50.043C366.762 50.043 366.092 49.9648 365.529 49.8086C364.971 49.6562 364.543 49.4316 364.246 49.1348C363.949 48.8379 363.801 48.4805 363.801 48.0625ZM365.324 48.0625C365.32 48.6172 366.059 48.8984 367.539 48.9062C368.266 48.9023 368.814 48.8301 369.186 48.6895C369.561 48.5488 369.75 48.3398 369.754 48.0625C369.75 47.7852 369.564 47.582 369.197 47.4531C368.83 47.3203 368.277 47.25 367.539 47.2422C366.789 47.25 366.23 47.3184 365.863 47.4473C365.5 47.5762 365.32 47.7812 365.324 48.0625Z" fill="white"/>
<rect x="386" y="35" width="37" height="20" rx="10" fill="#222222"/>
<path d="M403.691 50.0781H402.285V39.4141H403.691V50.0781ZM394.316 46.8086C395.375 46.1797 396.164 45.4688 396.684 44.6758C397.207 43.8828 397.521 42.9531 397.627 41.8867H394.902V40.6797H399.109C399.109 41.7383 398.986 42.6875 398.74 43.5273H400.023V39.6484H401.418V49.6094H400.023V44.7109H398.277C397.965 45.3359 397.553 45.9102 397.041 46.4336C396.529 46.957 395.902 47.4336 395.16 47.8633L394.316 46.8086ZM413.746 45.4492H412.246V39.4258H413.746V45.4492ZM404.98 42.4844C404.98 41.9844 405.107 41.5391 405.361 41.1484C405.615 40.7578 405.963 40.4531 406.404 40.2344C406.85 40.0156 407.348 39.9062 407.898 39.9062C408.445 39.9062 408.939 40.0156 409.381 40.2344C409.826 40.4531 410.176 40.7578 410.43 41.1484C410.688 41.5391 410.816 41.9844 410.816 42.4844C410.816 42.9648 410.688 43.3984 410.43 43.7852C410.176 44.1719 409.826 44.4766 409.381 44.6992C408.939 44.918 408.445 45.0273 407.898 45.0273C407.352 45.0273 406.855 44.918 406.41 44.6992C405.965 44.4766 405.615 44.1719 405.361 43.7852C405.107 43.3984 404.98 42.9648 404.98 42.4844ZM406.445 42.4844C406.441 42.7422 406.5 42.9688 406.621 43.1641C406.746 43.3594 406.918 43.5098 407.137 43.6152C407.359 43.7207 407.613 43.7734 407.898 43.7734C408.176 43.7734 408.422 43.7207 408.637 43.6152C408.855 43.5098 409.027 43.3594 409.152 43.1641C409.277 42.9688 409.34 42.7422 409.34 42.4844C409.34 42.2109 409.277 41.9746 409.152 41.7754C409.027 41.5762 408.855 41.4238 408.637 41.3184C408.422 41.2129 408.176 41.1602 407.898 41.1602C407.613 41.1602 407.359 41.2129 407.137 41.3184C406.918 41.4238 406.746 41.5762 406.621 41.7754C406.5 41.9746 406.441 42.2109 406.445 42.4844ZM406.598 45.9297H413.746V49.9609H406.598V45.9297ZM412.281 48.7656V47.1133H408.074V48.7656H412.281Z" fill="white"/>
<rect x="428" y="35" width="91" height="20" rx="10" fill="#222222"/>
<path d="M442.457 43.4688C442.387 43.0039 442.186 42.6367 441.854 42.3672C441.521 42.0977 441.105 41.9609 440.605 41.957C440.164 41.9609 439.777 42.0723 439.445 42.291C439.117 42.5098 438.863 42.8301 438.684 43.252C438.504 43.6699 438.414 44.1719 438.414 44.7578C438.414 45.3555 438.504 45.8633 438.684 46.2812C438.867 46.6992 439.121 47.0156 439.445 47.2305C439.773 47.4453 440.156 47.5547 440.594 47.5586C441.082 47.5547 441.494 47.4258 441.83 47.1719C442.166 46.9141 442.375 46.5586 442.457 46.1055L444.238 46.1172C444.172 46.6523 443.982 47.1484 443.67 47.6055C443.357 48.0625 442.936 48.4297 442.404 48.707C441.873 48.9805 441.262 49.1172 440.57 49.1172C439.809 49.1172 439.129 48.9453 438.531 48.6016C437.938 48.2539 437.471 47.752 437.131 47.0957C436.791 46.4355 436.621 45.6562 436.621 44.7578C436.621 43.8555 436.791 43.0762 437.131 42.4199C437.475 41.7637 437.945 41.2637 438.543 40.9199C439.141 40.5723 439.816 40.3984 440.57 40.3984C441.223 40.3984 441.812 40.5195 442.34 40.7617C442.867 41.0039 443.295 41.3555 443.623 41.8164C443.955 42.2773 444.16 42.8281 444.238 43.4688H442.457ZM451.105 43.2461C450.984 42.8438 450.768 42.5293 450.455 42.3027C450.143 42.0762 449.758 41.9609 449.301 41.957C448.863 41.9609 448.479 42.0723 448.146 42.291C447.814 42.5098 447.557 42.8281 447.373 43.2461C447.189 43.6641 447.098 44.1641 447.098 44.7461C447.098 45.3359 447.188 45.8418 447.367 46.2637C447.547 46.6855 447.803 47.0059 448.135 47.2246C448.467 47.4434 448.859 47.5547 449.312 47.5586C449.711 47.5586 450.055 47.4863 450.344 47.3418C450.637 47.1973 450.861 46.9941 451.018 46.7324C451.178 46.4668 451.262 46.1562 451.27 45.8008H449.43V44.4766H452.969V45.5312C452.969 46.2617 452.812 46.8984 452.5 47.4414C452.191 47.9805 451.758 48.3945 451.199 48.6836C450.645 48.9727 450.012 49.1172 449.301 49.1172C448.512 49.1172 447.814 48.9414 447.209 48.5898C446.607 48.2344 446.139 47.7305 445.803 47.0781C445.471 46.4219 445.305 45.6523 445.305 44.7695C445.305 43.875 445.477 43.0977 445.82 42.4375C446.164 41.7773 446.637 41.2734 447.238 40.9258C447.84 40.5742 448.516 40.3984 449.266 40.3984C449.895 40.3984 450.471 40.5195 450.994 40.7617C451.518 41.0039 451.943 41.3418 452.271 41.7754C452.604 42.2051 452.809 42.6953 452.887 43.2461H451.105ZM459.496 40.1641C460.039 40.1641 460.521 40.3203 460.943 40.6328C461.369 40.9414 461.703 41.3828 461.945 41.957C462.188 42.5312 462.309 43.1992 462.309 43.9609C462.309 44.7266 462.188 45.3984 461.945 45.9766C461.703 46.5508 461.369 46.9941 460.943 47.3066C460.521 47.6152 460.039 47.7695 459.496 47.7695C458.953 47.7695 458.467 47.6152 458.037 47.3066C457.611 46.9941 457.279 46.5508 457.041 45.9766C456.803 45.3984 456.684 44.7266 456.684 43.9609C456.684 43.1992 456.803 42.5312 457.041 41.957C457.279 41.3828 457.611 40.9414 458.037 40.6328C458.467 40.3203 458.953 40.1641 459.496 40.1641ZM458.125 43.9609C458.125 44.4805 458.182 44.9258 458.295 45.2969C458.408 45.6641 458.568 45.9434 458.775 46.1348C458.982 46.3223 459.223 46.4141 459.496 46.4102C459.773 46.4141 460.016 46.3223 460.223 46.1348C460.43 45.9434 460.59 45.6641 460.703 45.2969C460.82 44.9258 460.879 44.4805 460.879 43.9609C460.879 43.4414 460.82 42.998 460.703 42.6309C460.59 42.2637 460.43 41.9863 460.223 41.7988C460.016 41.6074 459.773 41.5117 459.496 41.5117C459.223 41.5117 458.982 41.6074 458.775 41.7988C458.568 41.9863 458.408 42.2656 458.295 42.6367C458.182 43.0039 458.125 43.4453 458.125 43.9609ZM463.539 39.4141H465.039V43.4336H466.609V44.6758H465.039V50.0781H463.539V39.4141ZM475.691 46.1055H468.145V40.1992H475.609V41.4062H469.668V42.5312H475.363V43.7031H469.668V44.9219H475.691V46.1055ZM466.996 47.6172H476.758V48.8359H466.996V47.6172ZM489.895 48.8945H480.133V47.6406H484.234V45.7188H480.941V44.5469H482.371V41.5H480.895V40.3047H489.074V41.5H487.574V44.5469H489.027V45.7188H485.723V47.6406H489.895V48.8945ZM486.098 44.5469V41.5H483.871V44.5469H486.098ZM494.641 42.3203C494.637 42.9102 494.736 43.4902 494.939 44.0605C495.143 44.627 495.445 45.1387 495.848 45.5957C496.25 46.0488 496.738 46.3945 497.312 46.6328L496.504 47.8047C495.895 47.5469 495.371 47.1699 494.934 46.6738C494.496 46.1738 494.152 45.5898 493.902 44.9219C493.652 45.6445 493.305 46.2812 492.859 46.832C492.418 47.3789 491.891 47.793 491.277 48.0742L490.422 46.8906C490.992 46.6367 491.479 46.2676 491.881 45.7832C492.287 45.2988 492.592 44.7559 492.795 44.1543C493.002 43.5488 493.105 42.9375 493.105 42.3203V41.6641H490.844V40.4453H496.867V41.6641H494.641V42.3203ZM497.922 39.4141H499.434V50.0781H497.922V39.4141ZM504.871 41.2539C504.871 41.7617 504.957 42.248 505.129 42.7129C505.305 43.1777 505.572 43.5938 505.932 43.9609C506.295 44.3281 506.746 44.6133 507.285 44.8164L506.453 45.9766C505.91 45.7617 505.443 45.4551 505.053 45.0566C504.662 44.6543 504.354 44.1836 504.127 43.6445C503.889 44.2188 503.561 44.7168 503.143 45.1387C502.725 45.5605 502.219 45.8828 501.625 46.1055L500.828 44.9336C501.391 44.7344 501.861 44.4473 502.24 44.0723C502.619 43.6973 502.898 43.2695 503.078 42.7891C503.262 42.3047 503.355 41.793 503.359 41.2539V40.0234H504.871V41.2539ZM502.762 46.5742H504.273V48.6953H510.086V49.8906H502.762V46.5742ZM506.547 42.8711H508.375V42.0156H506.547V40.8086H508.375V39.4258H509.863V47.3359H508.375V44.0781H506.547V42.8711Z" fill="white"/>
<rect x="524" y="35" width="81" height="20" rx="10" fill="#222222"/>
<path d="M537.781 47.4766H532.66V40.4219H537.781V47.4766ZM536.293 46.293V41.5938H534.137V46.293H536.293ZM539.234 39.4141H540.734V43.4336H542.305V44.6758H540.734V50.0781H539.234V39.4141ZM547.438 40.6094C547.438 41.6836 547.332 42.6289 547.121 43.4453H548.27V39.6484H549.664V49.6094H548.27V44.6523H546.693C546.393 45.3047 545.98 45.9062 545.457 46.457C544.938 47.0039 544.281 47.5039 543.488 47.957L542.656 46.9375C543.32 46.5508 543.873 46.1348 544.314 45.6895C544.756 45.2441 545.105 44.7598 545.363 44.2363L542.879 44.4883L542.715 43.2227L545.779 43.0586C545.869 42.6953 545.934 42.2773 545.973 41.8047H543.242V40.6094H547.438ZM550.531 39.4141H551.938V50.0781H550.531V39.4141ZM558.816 41.3477H555.148V42.1797H558.5V43.3398H555.148V44.1953C556.207 44.1953 557.051 44.1797 557.68 44.1484C558.312 44.1172 558.941 44.0508 559.566 43.9492L559.719 45.1211C559.07 45.2266 558.414 45.2988 557.75 45.3379C557.09 45.373 556.258 45.3906 555.254 45.3906H554.562H553.648V40.1523H558.816V41.3477ZM554.691 48.0508C554.691 47.6289 554.838 47.2676 555.131 46.9668C555.424 46.6621 555.846 46.4297 556.396 46.2695C556.947 46.1055 557.602 46.0234 558.359 46.0234C559.109 46.0234 559.76 46.1055 560.311 46.2695C560.865 46.4297 561.293 46.6621 561.594 46.9668C561.895 47.2676 562.047 47.6289 562.051 48.0508C562.047 48.4766 561.895 48.8418 561.594 49.1465C561.293 49.4512 560.865 49.6816 560.311 49.8379C559.76 49.998 559.109 50.0781 558.359 50.0781C557.602 50.0781 556.947 49.998 556.396 49.8379C555.846 49.6816 555.424 49.4512 555.131 49.1465C554.838 48.8418 554.691 48.4766 554.691 48.0508ZM556.18 48.0508C556.18 48.3477 556.363 48.5703 556.73 48.7188C557.098 48.8672 557.641 48.9414 558.359 48.9414C559.07 48.9414 559.613 48.8672 559.988 48.7188C560.363 48.5664 560.551 48.3438 560.551 48.0508C560.551 47.7695 560.365 47.5547 559.994 47.4062C559.623 47.2578 559.092 47.1836 558.4 47.1836C557.67 47.1836 557.117 47.2578 556.742 47.4062C556.367 47.5508 556.18 47.7656 556.18 48.0508ZM560.492 39.4258H561.992V45.8828H560.492V39.4258ZM569.621 42.0977C569.617 43.0508 569.768 43.9199 570.072 44.7051C570.377 45.4902 570.871 46.1016 571.555 46.5391L570.746 47.6992C569.891 47.1836 569.275 46.3262 568.9 45.127C568.701 45.7559 568.438 46.3105 568.109 46.791C567.781 47.2715 567.383 47.6523 566.914 47.9336L566 46.832C566.746 46.3711 567.293 45.7246 567.641 44.8926C567.992 44.0605 568.168 43.1523 568.168 42.168V40.3281H569.621V42.0977ZM570.43 43.0117H571.812V39.5664H573.207V49.5859H571.812V44.2305H570.43V43.0117ZM574.016 39.4141H575.445V50.0781H574.016V39.4141ZM579.605 39.7305C580.141 39.7305 580.625 39.834 581.059 40.041C581.492 40.248 581.832 40.5371 582.078 40.9082C582.328 41.2793 582.453 41.6992 582.453 42.168C582.453 42.6328 582.328 43.0488 582.078 43.416C581.832 43.7832 581.492 44.0723 581.059 44.2832C580.625 44.4902 580.141 44.5938 579.605 44.5938C579.062 44.5938 578.572 44.4902 578.135 44.2832C577.697 44.0723 577.354 43.7832 577.104 43.416C576.857 43.0488 576.734 42.6328 576.734 42.168C576.734 41.6992 576.857 41.2793 577.104 40.9082C577.354 40.5371 577.697 40.248 578.135 40.041C578.572 39.834 579.062 39.7305 579.605 39.7305ZM578.188 42.168C578.184 42.418 578.242 42.6348 578.363 42.8184C578.484 42.998 578.652 43.1367 578.867 43.2344C579.082 43.332 579.328 43.3828 579.605 43.3867C579.875 43.3828 580.115 43.332 580.326 43.2344C580.541 43.1367 580.709 42.998 580.83 42.8184C580.951 42.6348 581.012 42.418 581.012 42.168C581.012 41.918 580.951 41.7012 580.83 41.5176C580.709 41.334 580.541 41.1934 580.326 41.0957C580.115 40.998 579.875 40.9492 579.605 40.9492C579.332 40.9492 579.086 40.998 578.867 41.0957C578.652 41.1934 578.484 41.334 578.363 41.5176C578.242 41.7012 578.184 41.918 578.188 42.168ZM578.34 45.2031H585.5V48.0977H579.828V48.7891H585.793V49.9609H578.363V47.0078H584.012V46.3516H578.34V45.2031ZM584 39.4141H585.5V44.7578H584V39.4141ZM596.703 48.7891H586.941V47.5703H596.703V48.7891ZM587.34 44.8281C588.094 44.7109 588.748 44.4883 589.303 44.1602C589.857 43.8281 590.281 43.4316 590.574 42.9707C590.867 42.5098 591.016 42.0273 591.02 41.5234V41.5117H587.75V40.3164H595.848V41.5117H592.59V41.5234C592.586 42.0273 592.73 42.5059 593.023 42.959C593.32 43.4082 593.752 43.7949 594.318 44.1191C594.885 44.4434 595.559 44.6641 596.34 44.7812L595.754 45.9648C594.832 45.8047 594.031 45.5078 593.352 45.0742C592.676 44.6367 592.162 44.0996 591.811 43.4629C591.467 44.1152 590.961 44.666 590.293 45.1152C589.625 45.5605 588.836 45.8633 587.926 46.0234L587.34 44.8281Z" fill="white"/>
<rect x="610" y="35" width="33" height="20" rx="10" fill="#222222"/>
<path d="M619.105 40.5156H620.863V44.0312H624.543V40.5156H626.312V49H624.543V45.4844H620.863V49H619.105V40.5156ZM627.742 40.5156H631.07C631.703 40.5156 632.248 40.6289 632.705 40.8555C633.162 41.082 633.51 41.4043 633.748 41.8223C633.986 42.2363 634.105 42.7227 634.105 43.2812C634.105 43.8594 633.977 44.3555 633.719 44.7695C633.461 45.1836 633.09 45.4941 632.605 45.7012L634.41 49H632.465L630.842 45.9883H629.5V49H627.742V40.5156ZM630.742 44.5586C631.781 44.5586 632.297 44.1328 632.289 43.2812C632.293 42.8516 632.166 42.5254 631.908 42.3027C631.65 42.0762 631.262 41.9609 630.742 41.957H629.5V44.5586H630.742Z" fill="white"/>
</svg>
